%TF.GenerationSoftware,KiCad,Pcbnew,7.0.7+dfsg-1*%
%TF.CreationDate,2023-09-26T20:47:17-04:00*%
%TF.ProjectId,Relaybox,52656c61-7962-46f7-982e-6b696361645f,v1*%
%TF.SameCoordinates,Original*%
%TF.FileFunction,Legend,Top*%
%TF.FilePolarity,Positive*%
%FSLAX46Y46*%
G04 Gerber Fmt 4.6, Leading zero omitted, Abs format (unit mm)*
G04 Created by KiCad (PCBNEW 7.0.7+dfsg-1) date 2023-09-26 20:47:17*
%MOMM*%
%LPD*%
G01*
G04 APERTURE LIST*
%ADD10C,0.150000*%
%ADD11C,0.100000*%
%ADD12C,0.120000*%
G04 APERTURE END LIST*
D10*
X128233333Y-122459580D02*
X128185714Y-122507200D01*
X128185714Y-122507200D02*
X128042857Y-122554819D01*
X128042857Y-122554819D02*
X127947619Y-122554819D01*
X127947619Y-122554819D02*
X127804762Y-122507200D01*
X127804762Y-122507200D02*
X127709524Y-122411961D01*
X127709524Y-122411961D02*
X127661905Y-122316723D01*
X127661905Y-122316723D02*
X127614286Y-122126247D01*
X127614286Y-122126247D02*
X127614286Y-121983390D01*
X127614286Y-121983390D02*
X127661905Y-121792914D01*
X127661905Y-121792914D02*
X127709524Y-121697676D01*
X127709524Y-121697676D02*
X127804762Y-121602438D01*
X127804762Y-121602438D02*
X127947619Y-121554819D01*
X127947619Y-121554819D02*
X128042857Y-121554819D01*
X128042857Y-121554819D02*
X128185714Y-121602438D01*
X128185714Y-121602438D02*
X128233333Y-121650057D01*
X128614286Y-121650057D02*
X128661905Y-121602438D01*
X128661905Y-121602438D02*
X128757143Y-121554819D01*
X128757143Y-121554819D02*
X128995238Y-121554819D01*
X128995238Y-121554819D02*
X129090476Y-121602438D01*
X129090476Y-121602438D02*
X129138095Y-121650057D01*
X129138095Y-121650057D02*
X129185714Y-121745295D01*
X129185714Y-121745295D02*
X129185714Y-121840533D01*
X129185714Y-121840533D02*
X129138095Y-121983390D01*
X129138095Y-121983390D02*
X128566667Y-122554819D01*
X128566667Y-122554819D02*
X129185714Y-122554819D01*
D11*
X155007419Y-96583333D02*
X155721704Y-96583333D01*
X155721704Y-96583333D02*
X155864561Y-96630952D01*
X155864561Y-96630952D02*
X155959800Y-96726190D01*
X155959800Y-96726190D02*
X156007419Y-96869047D01*
X156007419Y-96869047D02*
X156007419Y-96964285D01*
X155007419Y-96202380D02*
X155007419Y-95583333D01*
X155007419Y-95583333D02*
X155388371Y-95916666D01*
X155388371Y-95916666D02*
X155388371Y-95773809D01*
X155388371Y-95773809D02*
X155435990Y-95678571D01*
X155435990Y-95678571D02*
X155483609Y-95630952D01*
X155483609Y-95630952D02*
X155578847Y-95583333D01*
X155578847Y-95583333D02*
X155816942Y-95583333D01*
X155816942Y-95583333D02*
X155912180Y-95630952D01*
X155912180Y-95630952D02*
X155959800Y-95678571D01*
X155959800Y-95678571D02*
X156007419Y-95773809D01*
X156007419Y-95773809D02*
X156007419Y-96059523D01*
X156007419Y-96059523D02*
X155959800Y-96154761D01*
X155959800Y-96154761D02*
X155912180Y-96202380D01*
D10*
X133317319Y-111100594D02*
X132317319Y-111100594D01*
X133317319Y-110529166D02*
X132745890Y-110957737D01*
X132317319Y-110529166D02*
X132888747Y-111100594D01*
X132412557Y-110148213D02*
X132364938Y-110100594D01*
X132364938Y-110100594D02*
X132317319Y-110005356D01*
X132317319Y-110005356D02*
X132317319Y-109767261D01*
X132317319Y-109767261D02*
X132364938Y-109672023D01*
X132364938Y-109672023D02*
X132412557Y-109624404D01*
X132412557Y-109624404D02*
X132507795Y-109576785D01*
X132507795Y-109576785D02*
X132603033Y-109576785D01*
X132603033Y-109576785D02*
X132745890Y-109624404D01*
X132745890Y-109624404D02*
X133317319Y-110195832D01*
X133317319Y-110195832D02*
X133317319Y-109576785D01*
X132052438Y-102557142D02*
X132004819Y-102652380D01*
X132004819Y-102652380D02*
X132004819Y-102795237D01*
X132004819Y-102795237D02*
X132052438Y-102938094D01*
X132052438Y-102938094D02*
X132147676Y-103033332D01*
X132147676Y-103033332D02*
X132242914Y-103080951D01*
X132242914Y-103080951D02*
X132433390Y-103128570D01*
X132433390Y-103128570D02*
X132576247Y-103128570D01*
X132576247Y-103128570D02*
X132766723Y-103080951D01*
X132766723Y-103080951D02*
X132861961Y-103033332D01*
X132861961Y-103033332D02*
X132957200Y-102938094D01*
X132957200Y-102938094D02*
X133004819Y-102795237D01*
X133004819Y-102795237D02*
X133004819Y-102699999D01*
X133004819Y-102699999D02*
X132957200Y-102557142D01*
X132957200Y-102557142D02*
X132909580Y-102509523D01*
X132909580Y-102509523D02*
X132576247Y-102509523D01*
X132576247Y-102509523D02*
X132576247Y-102699999D01*
X132100057Y-102128570D02*
X132052438Y-102080951D01*
X132052438Y-102080951D02*
X132004819Y-101985713D01*
X132004819Y-101985713D02*
X132004819Y-101747618D01*
X132004819Y-101747618D02*
X132052438Y-101652380D01*
X132052438Y-101652380D02*
X132100057Y-101604761D01*
X132100057Y-101604761D02*
X132195295Y-101557142D01*
X132195295Y-101557142D02*
X132290533Y-101557142D01*
X132290533Y-101557142D02*
X132433390Y-101604761D01*
X132433390Y-101604761D02*
X133004819Y-102176189D01*
X133004819Y-102176189D02*
X133004819Y-101557142D01*
X133004819Y-100557142D02*
X132528628Y-100890475D01*
X133004819Y-101128570D02*
X132004819Y-101128570D01*
X132004819Y-101128570D02*
X132004819Y-100747618D01*
X132004819Y-100747618D02*
X132052438Y-100652380D01*
X132052438Y-100652380D02*
X132100057Y-100604761D01*
X132100057Y-100604761D02*
X132195295Y-100557142D01*
X132195295Y-100557142D02*
X132338152Y-100557142D01*
X132338152Y-100557142D02*
X132433390Y-100604761D01*
X132433390Y-100604761D02*
X132481009Y-100652380D01*
X132481009Y-100652380D02*
X132528628Y-100747618D01*
X132528628Y-100747618D02*
X132528628Y-101128570D01*
X133004819Y-99652380D02*
X133004819Y-100128570D01*
X133004819Y-100128570D02*
X132004819Y-100128570D01*
X132623866Y-99319046D02*
X132623866Y-98557142D01*
X133004819Y-97557142D02*
X133004819Y-98128570D01*
X133004819Y-97842856D02*
X132004819Y-97842856D01*
X132004819Y-97842856D02*
X132147676Y-97938094D01*
X132147676Y-97938094D02*
X132242914Y-98033332D01*
X132242914Y-98033332D02*
X132290533Y-98128570D01*
X132623866Y-97128570D02*
X132623866Y-96366666D01*
X132481009Y-95890475D02*
X132481009Y-95557142D01*
X133004819Y-95414285D02*
X133004819Y-95890475D01*
X133004819Y-95890475D02*
X132004819Y-95890475D01*
X132004819Y-95890475D02*
X132004819Y-95414285D01*
X132623866Y-94985713D02*
X132623866Y-94223809D01*
X133004819Y-93747618D02*
X132004819Y-93747618D01*
X132004819Y-93747618D02*
X132004819Y-93509523D01*
X132004819Y-93509523D02*
X132052438Y-93366666D01*
X132052438Y-93366666D02*
X132147676Y-93271428D01*
X132147676Y-93271428D02*
X132242914Y-93223809D01*
X132242914Y-93223809D02*
X132433390Y-93176190D01*
X132433390Y-93176190D02*
X132576247Y-93176190D01*
X132576247Y-93176190D02*
X132766723Y-93223809D01*
X132766723Y-93223809D02*
X132861961Y-93271428D01*
X132861961Y-93271428D02*
X132957200Y-93366666D01*
X132957200Y-93366666D02*
X133004819Y-93509523D01*
X133004819Y-93509523D02*
X133004819Y-93747618D01*
X132909580Y-92176190D02*
X132957200Y-92223809D01*
X132957200Y-92223809D02*
X133004819Y-92366666D01*
X133004819Y-92366666D02*
X133004819Y-92461904D01*
X133004819Y-92461904D02*
X132957200Y-92604761D01*
X132957200Y-92604761D02*
X132861961Y-92699999D01*
X132861961Y-92699999D02*
X132766723Y-92747618D01*
X132766723Y-92747618D02*
X132576247Y-92795237D01*
X132576247Y-92795237D02*
X132433390Y-92795237D01*
X132433390Y-92795237D02*
X132242914Y-92747618D01*
X132242914Y-92747618D02*
X132147676Y-92699999D01*
X132147676Y-92699999D02*
X132052438Y-92604761D01*
X132052438Y-92604761D02*
X132004819Y-92461904D01*
X132004819Y-92461904D02*
X132004819Y-92366666D01*
X132004819Y-92366666D02*
X132052438Y-92223809D01*
X132052438Y-92223809D02*
X132100057Y-92176190D01*
X133004819Y-91223809D02*
X133004819Y-91795237D01*
X133004819Y-91509523D02*
X132004819Y-91509523D01*
X132004819Y-91509523D02*
X132147676Y-91604761D01*
X132147676Y-91604761D02*
X132242914Y-91699999D01*
X132242914Y-91699999D02*
X132290533Y-91795237D01*
X132100057Y-90842856D02*
X132052438Y-90795237D01*
X132052438Y-90795237D02*
X132004819Y-90699999D01*
X132004819Y-90699999D02*
X132004819Y-90461904D01*
X132004819Y-90461904D02*
X132052438Y-90366666D01*
X132052438Y-90366666D02*
X132100057Y-90319047D01*
X132100057Y-90319047D02*
X132195295Y-90271428D01*
X132195295Y-90271428D02*
X132290533Y-90271428D01*
X132290533Y-90271428D02*
X132433390Y-90319047D01*
X132433390Y-90319047D02*
X133004819Y-90890475D01*
X133004819Y-90890475D02*
X133004819Y-90271428D01*
D11*
X133209166Y-142052419D02*
X133209166Y-142766704D01*
X133209166Y-142766704D02*
X133161547Y-142909561D01*
X133161547Y-142909561D02*
X133066309Y-143004800D01*
X133066309Y-143004800D02*
X132923452Y-143052419D01*
X132923452Y-143052419D02*
X132828214Y-143052419D01*
X134209166Y-143052419D02*
X133637738Y-143052419D01*
X133923452Y-143052419D02*
X133923452Y-142052419D01*
X133923452Y-142052419D02*
X133828214Y-142195276D01*
X133828214Y-142195276D02*
X133732976Y-142290514D01*
X133732976Y-142290514D02*
X133637738Y-142338133D01*
D10*
X104211905Y-117354819D02*
X104211905Y-116354819D01*
X104211905Y-116354819D02*
X104450000Y-116354819D01*
X104450000Y-116354819D02*
X104592857Y-116402438D01*
X104592857Y-116402438D02*
X104688095Y-116497676D01*
X104688095Y-116497676D02*
X104735714Y-116592914D01*
X104735714Y-116592914D02*
X104783333Y-116783390D01*
X104783333Y-116783390D02*
X104783333Y-116926247D01*
X104783333Y-116926247D02*
X104735714Y-117116723D01*
X104735714Y-117116723D02*
X104688095Y-117211961D01*
X104688095Y-117211961D02*
X104592857Y-117307200D01*
X104592857Y-117307200D02*
X104450000Y-117354819D01*
X104450000Y-117354819D02*
X104211905Y-117354819D01*
X105735714Y-117354819D02*
X105164286Y-117354819D01*
X105450000Y-117354819D02*
X105450000Y-116354819D01*
X105450000Y-116354819D02*
X105354762Y-116497676D01*
X105354762Y-116497676D02*
X105259524Y-116592914D01*
X105259524Y-116592914D02*
X105164286Y-116640533D01*
X114607142Y-116554819D02*
X114035714Y-116554819D01*
X114321428Y-116554819D02*
X114321428Y-115554819D01*
X114321428Y-115554819D02*
X114226190Y-115697676D01*
X114226190Y-115697676D02*
X114130952Y-115792914D01*
X114130952Y-115792914D02*
X114035714Y-115840533D01*
X115035714Y-116554819D02*
X115035714Y-115554819D01*
X115035714Y-115554819D02*
X115607142Y-116554819D01*
X115607142Y-116554819D02*
X115607142Y-115554819D01*
X116511904Y-115888152D02*
X116511904Y-116554819D01*
X116273809Y-115507200D02*
X116035714Y-116221485D01*
X116035714Y-116221485D02*
X116654761Y-116221485D01*
X117559523Y-116554819D02*
X116988095Y-116554819D01*
X117273809Y-116554819D02*
X117273809Y-115554819D01*
X117273809Y-115554819D02*
X117178571Y-115697676D01*
X117178571Y-115697676D02*
X117083333Y-115792914D01*
X117083333Y-115792914D02*
X116988095Y-115840533D01*
X118416666Y-115888152D02*
X118416666Y-116554819D01*
X118178571Y-115507200D02*
X117940476Y-116221485D01*
X117940476Y-116221485D02*
X118559523Y-116221485D01*
X119083333Y-115983390D02*
X118988095Y-115935771D01*
X118988095Y-115935771D02*
X118940476Y-115888152D01*
X118940476Y-115888152D02*
X118892857Y-115792914D01*
X118892857Y-115792914D02*
X118892857Y-115745295D01*
X118892857Y-115745295D02*
X118940476Y-115650057D01*
X118940476Y-115650057D02*
X118988095Y-115602438D01*
X118988095Y-115602438D02*
X119083333Y-115554819D01*
X119083333Y-115554819D02*
X119273809Y-115554819D01*
X119273809Y-115554819D02*
X119369047Y-115602438D01*
X119369047Y-115602438D02*
X119416666Y-115650057D01*
X119416666Y-115650057D02*
X119464285Y-115745295D01*
X119464285Y-115745295D02*
X119464285Y-115792914D01*
X119464285Y-115792914D02*
X119416666Y-115888152D01*
X119416666Y-115888152D02*
X119369047Y-115935771D01*
X119369047Y-115935771D02*
X119273809Y-115983390D01*
X119273809Y-115983390D02*
X119083333Y-115983390D01*
X119083333Y-115983390D02*
X118988095Y-116031009D01*
X118988095Y-116031009D02*
X118940476Y-116078628D01*
X118940476Y-116078628D02*
X118892857Y-116173866D01*
X118892857Y-116173866D02*
X118892857Y-116364342D01*
X118892857Y-116364342D02*
X118940476Y-116459580D01*
X118940476Y-116459580D02*
X118988095Y-116507200D01*
X118988095Y-116507200D02*
X119083333Y-116554819D01*
X119083333Y-116554819D02*
X119273809Y-116554819D01*
X119273809Y-116554819D02*
X119369047Y-116507200D01*
X119369047Y-116507200D02*
X119416666Y-116459580D01*
X119416666Y-116459580D02*
X119464285Y-116364342D01*
X119464285Y-116364342D02*
X119464285Y-116173866D01*
X119464285Y-116173866D02*
X119416666Y-116078628D01*
X119416666Y-116078628D02*
X119369047Y-116031009D01*
X119369047Y-116031009D02*
X119273809Y-115983390D01*
X104783333Y-122559580D02*
X104735714Y-122607200D01*
X104735714Y-122607200D02*
X104592857Y-122654819D01*
X104592857Y-122654819D02*
X104497619Y-122654819D01*
X104497619Y-122654819D02*
X104354762Y-122607200D01*
X104354762Y-122607200D02*
X104259524Y-122511961D01*
X104259524Y-122511961D02*
X104211905Y-122416723D01*
X104211905Y-122416723D02*
X104164286Y-122226247D01*
X104164286Y-122226247D02*
X104164286Y-122083390D01*
X104164286Y-122083390D02*
X104211905Y-121892914D01*
X104211905Y-121892914D02*
X104259524Y-121797676D01*
X104259524Y-121797676D02*
X104354762Y-121702438D01*
X104354762Y-121702438D02*
X104497619Y-121654819D01*
X104497619Y-121654819D02*
X104592857Y-121654819D01*
X104592857Y-121654819D02*
X104735714Y-121702438D01*
X104735714Y-121702438D02*
X104783333Y-121750057D01*
X105735714Y-122654819D02*
X105164286Y-122654819D01*
X105450000Y-122654819D02*
X105450000Y-121654819D01*
X105450000Y-121654819D02*
X105354762Y-121797676D01*
X105354762Y-121797676D02*
X105259524Y-121892914D01*
X105259524Y-121892914D02*
X105164286Y-121940533D01*
X127661905Y-117904819D02*
X127661905Y-116904819D01*
X127661905Y-116904819D02*
X127900000Y-116904819D01*
X127900000Y-116904819D02*
X128042857Y-116952438D01*
X128042857Y-116952438D02*
X128138095Y-117047676D01*
X128138095Y-117047676D02*
X128185714Y-117142914D01*
X128185714Y-117142914D02*
X128233333Y-117333390D01*
X128233333Y-117333390D02*
X128233333Y-117476247D01*
X128233333Y-117476247D02*
X128185714Y-117666723D01*
X128185714Y-117666723D02*
X128138095Y-117761961D01*
X128138095Y-117761961D02*
X128042857Y-117857200D01*
X128042857Y-117857200D02*
X127900000Y-117904819D01*
X127900000Y-117904819D02*
X127661905Y-117904819D01*
X128614286Y-117000057D02*
X128661905Y-116952438D01*
X128661905Y-116952438D02*
X128757143Y-116904819D01*
X128757143Y-116904819D02*
X128995238Y-116904819D01*
X128995238Y-116904819D02*
X129090476Y-116952438D01*
X129090476Y-116952438D02*
X129138095Y-117000057D01*
X129138095Y-117000057D02*
X129185714Y-117095295D01*
X129185714Y-117095295D02*
X129185714Y-117190533D01*
X129185714Y-117190533D02*
X129138095Y-117333390D01*
X129138095Y-117333390D02*
X128566667Y-117904819D01*
X128566667Y-117904819D02*
X129185714Y-117904819D01*
X117067319Y-111100594D02*
X116067319Y-111100594D01*
X117067319Y-110529166D02*
X116495890Y-110957737D01*
X116067319Y-110529166D02*
X116638747Y-111100594D01*
X117067319Y-109576785D02*
X117067319Y-110148213D01*
X117067319Y-109862499D02*
X116067319Y-109862499D01*
X116067319Y-109862499D02*
X116210176Y-109957737D01*
X116210176Y-109957737D02*
X116305414Y-110052975D01*
X116305414Y-110052975D02*
X116353033Y-110148213D01*
X115802438Y-102557142D02*
X115754819Y-102652380D01*
X115754819Y-102652380D02*
X115754819Y-102795237D01*
X115754819Y-102795237D02*
X115802438Y-102938094D01*
X115802438Y-102938094D02*
X115897676Y-103033332D01*
X115897676Y-103033332D02*
X115992914Y-103080951D01*
X115992914Y-103080951D02*
X116183390Y-103128570D01*
X116183390Y-103128570D02*
X116326247Y-103128570D01*
X116326247Y-103128570D02*
X116516723Y-103080951D01*
X116516723Y-103080951D02*
X116611961Y-103033332D01*
X116611961Y-103033332D02*
X116707200Y-102938094D01*
X116707200Y-102938094D02*
X116754819Y-102795237D01*
X116754819Y-102795237D02*
X116754819Y-102699999D01*
X116754819Y-102699999D02*
X116707200Y-102557142D01*
X116707200Y-102557142D02*
X116659580Y-102509523D01*
X116659580Y-102509523D02*
X116326247Y-102509523D01*
X116326247Y-102509523D02*
X116326247Y-102699999D01*
X115850057Y-102128570D02*
X115802438Y-102080951D01*
X115802438Y-102080951D02*
X115754819Y-101985713D01*
X115754819Y-101985713D02*
X115754819Y-101747618D01*
X115754819Y-101747618D02*
X115802438Y-101652380D01*
X115802438Y-101652380D02*
X115850057Y-101604761D01*
X115850057Y-101604761D02*
X115945295Y-101557142D01*
X115945295Y-101557142D02*
X116040533Y-101557142D01*
X116040533Y-101557142D02*
X116183390Y-101604761D01*
X116183390Y-101604761D02*
X116754819Y-102176189D01*
X116754819Y-102176189D02*
X116754819Y-101557142D01*
X116754819Y-100557142D02*
X116278628Y-100890475D01*
X116754819Y-101128570D02*
X115754819Y-101128570D01*
X115754819Y-101128570D02*
X115754819Y-100747618D01*
X115754819Y-100747618D02*
X115802438Y-100652380D01*
X115802438Y-100652380D02*
X115850057Y-100604761D01*
X115850057Y-100604761D02*
X115945295Y-100557142D01*
X115945295Y-100557142D02*
X116088152Y-100557142D01*
X116088152Y-100557142D02*
X116183390Y-100604761D01*
X116183390Y-100604761D02*
X116231009Y-100652380D01*
X116231009Y-100652380D02*
X116278628Y-100747618D01*
X116278628Y-100747618D02*
X116278628Y-101128570D01*
X116754819Y-99652380D02*
X116754819Y-100128570D01*
X116754819Y-100128570D02*
X115754819Y-100128570D01*
X116373866Y-99319046D02*
X116373866Y-98557142D01*
X116754819Y-97557142D02*
X116754819Y-98128570D01*
X116754819Y-97842856D02*
X115754819Y-97842856D01*
X115754819Y-97842856D02*
X115897676Y-97938094D01*
X115897676Y-97938094D02*
X115992914Y-98033332D01*
X115992914Y-98033332D02*
X116040533Y-98128570D01*
X116373866Y-97128570D02*
X116373866Y-96366666D01*
X116231009Y-95890475D02*
X116231009Y-95557142D01*
X116754819Y-95414285D02*
X116754819Y-95890475D01*
X116754819Y-95890475D02*
X115754819Y-95890475D01*
X115754819Y-95890475D02*
X115754819Y-95414285D01*
X116373866Y-94985713D02*
X116373866Y-94223809D01*
X116754819Y-93747618D02*
X115754819Y-93747618D01*
X115754819Y-93747618D02*
X115754819Y-93509523D01*
X115754819Y-93509523D02*
X115802438Y-93366666D01*
X115802438Y-93366666D02*
X115897676Y-93271428D01*
X115897676Y-93271428D02*
X115992914Y-93223809D01*
X115992914Y-93223809D02*
X116183390Y-93176190D01*
X116183390Y-93176190D02*
X116326247Y-93176190D01*
X116326247Y-93176190D02*
X116516723Y-93223809D01*
X116516723Y-93223809D02*
X116611961Y-93271428D01*
X116611961Y-93271428D02*
X116707200Y-93366666D01*
X116707200Y-93366666D02*
X116754819Y-93509523D01*
X116754819Y-93509523D02*
X116754819Y-93747618D01*
X116659580Y-92176190D02*
X116707200Y-92223809D01*
X116707200Y-92223809D02*
X116754819Y-92366666D01*
X116754819Y-92366666D02*
X116754819Y-92461904D01*
X116754819Y-92461904D02*
X116707200Y-92604761D01*
X116707200Y-92604761D02*
X116611961Y-92699999D01*
X116611961Y-92699999D02*
X116516723Y-92747618D01*
X116516723Y-92747618D02*
X116326247Y-92795237D01*
X116326247Y-92795237D02*
X116183390Y-92795237D01*
X116183390Y-92795237D02*
X115992914Y-92747618D01*
X115992914Y-92747618D02*
X115897676Y-92699999D01*
X115897676Y-92699999D02*
X115802438Y-92604761D01*
X115802438Y-92604761D02*
X115754819Y-92461904D01*
X115754819Y-92461904D02*
X115754819Y-92366666D01*
X115754819Y-92366666D02*
X115802438Y-92223809D01*
X115802438Y-92223809D02*
X115850057Y-92176190D01*
X116754819Y-91223809D02*
X116754819Y-91795237D01*
X116754819Y-91509523D02*
X115754819Y-91509523D01*
X115754819Y-91509523D02*
X115897676Y-91604761D01*
X115897676Y-91604761D02*
X115992914Y-91699999D01*
X115992914Y-91699999D02*
X116040533Y-91795237D01*
X115850057Y-90842856D02*
X115802438Y-90795237D01*
X115802438Y-90795237D02*
X115754819Y-90699999D01*
X115754819Y-90699999D02*
X115754819Y-90461904D01*
X115754819Y-90461904D02*
X115802438Y-90366666D01*
X115802438Y-90366666D02*
X115850057Y-90319047D01*
X115850057Y-90319047D02*
X115945295Y-90271428D01*
X115945295Y-90271428D02*
X116040533Y-90271428D01*
X116040533Y-90271428D02*
X116183390Y-90319047D01*
X116183390Y-90319047D02*
X116754819Y-90890475D01*
X116754819Y-90890475D02*
X116754819Y-90271428D01*
D12*
%TO.C,C2*%
X122530000Y-119430000D02*
X122530000Y-122670000D01*
X122530000Y-119430000D02*
X127370000Y-119430000D01*
X122530000Y-122670000D02*
X127370000Y-122670000D01*
X127370000Y-119430000D02*
X127370000Y-122670000D01*
D11*
%TO.C,J3*%
X156235000Y-64517500D02*
X138455000Y-64517500D01*
X138455000Y-64517500D02*
X138455000Y-94997500D01*
X138455000Y-94997500D02*
X156235000Y-94997500D01*
X156235000Y-94997500D02*
X156235000Y-64517500D01*
%TO.C,J2*%
X77510000Y-85750500D02*
X95290000Y-85750500D01*
X95290000Y-85750500D02*
X95290000Y-65049500D01*
X95290000Y-65049500D02*
X77510000Y-65049500D01*
X77510000Y-65049500D02*
X77510000Y-85750500D01*
D12*
%TO.C,K2*%
X131490000Y-111440000D02*
X129300000Y-111440000D01*
X131490000Y-109100000D02*
X131490000Y-111440000D01*
X131250000Y-111200000D02*
X131250000Y-82200000D01*
X131250000Y-82200000D02*
X118550000Y-82200000D01*
X125250000Y-109400000D02*
X125250000Y-108200000D01*
X125250000Y-108600000D02*
X124550000Y-109000000D01*
X125250000Y-108200000D02*
X124550000Y-108200000D01*
X124550000Y-109400000D02*
X125250000Y-109400000D01*
X124550000Y-108200000D02*
X124550000Y-109400000D01*
X118550000Y-111200000D02*
X131250000Y-111200000D01*
X118550000Y-82200000D02*
X118550000Y-111200000D01*
D11*
%TO.C,J1*%
X132282500Y-143285000D02*
X101802500Y-143285000D01*
X101802500Y-143285000D02*
X101802500Y-125505000D01*
X101802500Y-125505000D02*
X132282500Y-125505000D01*
X132282500Y-125505000D02*
X132282500Y-143285000D01*
D12*
%TO.C,D1*%
X107980000Y-114680000D02*
X111420000Y-114680000D01*
X107980000Y-114860000D02*
X107980000Y-114680000D01*
X107980000Y-117340000D02*
X107980000Y-117520000D01*
X107980000Y-117520000D02*
X111420000Y-117520000D01*
X108460000Y-114680000D02*
X108460000Y-117520000D01*
X108580000Y-114680000D02*
X108580000Y-117520000D01*
X108700000Y-114680000D02*
X108700000Y-117520000D01*
X111420000Y-114680000D02*
X111420000Y-114860000D01*
X111420000Y-117520000D02*
X111420000Y-117340000D01*
%TO.C,C1*%
X110820000Y-122720000D02*
X110820000Y-119480000D01*
X110820000Y-122720000D02*
X105980000Y-122720000D01*
X110820000Y-119480000D02*
X105980000Y-119480000D01*
X105980000Y-122720000D02*
X105980000Y-119480000D01*
%TO.C,D2*%
X125420000Y-117620000D02*
X121980000Y-117620000D01*
X125420000Y-117440000D02*
X125420000Y-117620000D01*
X125420000Y-114960000D02*
X125420000Y-114780000D01*
X125420000Y-114780000D02*
X121980000Y-114780000D01*
X124940000Y-117620000D02*
X124940000Y-114780000D01*
X124820000Y-117620000D02*
X124820000Y-114780000D01*
X124700000Y-117620000D02*
X124700000Y-114780000D01*
X121980000Y-117620000D02*
X121980000Y-117440000D01*
X121980000Y-114780000D02*
X121980000Y-114960000D01*
%TO.C,K1*%
X115240000Y-111440000D02*
X113050000Y-111440000D01*
X115240000Y-109100000D02*
X115240000Y-111440000D01*
X115000000Y-111200000D02*
X115000000Y-82200000D01*
X115000000Y-82200000D02*
X102300000Y-82200000D01*
X109000000Y-109400000D02*
X109000000Y-108200000D01*
X109000000Y-108600000D02*
X108300000Y-109000000D01*
X109000000Y-108200000D02*
X108300000Y-108200000D01*
X108300000Y-109400000D02*
X109000000Y-109400000D01*
X108300000Y-108200000D02*
X108300000Y-109400000D01*
X102300000Y-111200000D02*
X115000000Y-111200000D01*
X102300000Y-82200000D02*
X102300000Y-111200000D01*
%TD*%
M02*
