%TF.GenerationSoftware,KiCad,Pcbnew,7.0.7+dfsg-1*%
%TF.CreationDate,2023-09-26T20:47:21-04:00*%
%TF.ProjectId,Relaybox,52656c61-7962-46f7-982e-6b696361645f,v1*%
%TF.SameCoordinates,Original*%
%TF.FileFunction,AssemblyDrawing,Top*%
%FSLAX46Y46*%
G04 Gerber Fmt 4.6, Leading zero omitted, Abs format (unit mm)*
G04 Created by KiCad (PCBNEW 7.0.7+dfsg-1) date 2023-09-26 20:47:21*
%MOMM*%
%LPD*%
G01*
G04 APERTURE LIST*
%ADD10C,0.150000*%
%ADD11C,0.138000*%
%ADD12C,0.100000*%
G04 APERTURE END LIST*
D10*
X115542857Y-121409580D02*
X115590476Y-121457200D01*
X115590476Y-121457200D02*
X115542857Y-121504819D01*
X115542857Y-121504819D02*
X115495238Y-121457200D01*
X115495238Y-121457200D02*
X115542857Y-121409580D01*
X115542857Y-121409580D02*
X115542857Y-121504819D01*
X116542856Y-121504819D02*
X115971428Y-121504819D01*
X116257142Y-121504819D02*
X116257142Y-120504819D01*
X116257142Y-120504819D02*
X116161904Y-120647676D01*
X116161904Y-120647676D02*
X116066666Y-120742914D01*
X116066666Y-120742914D02*
X115971428Y-120790533D01*
X117399999Y-120838152D02*
X117399999Y-121504819D01*
X116971428Y-120838152D02*
X116971428Y-121361961D01*
X116971428Y-121361961D02*
X117019047Y-121457200D01*
X117019047Y-121457200D02*
X117114285Y-121504819D01*
X117114285Y-121504819D02*
X117257142Y-121504819D01*
X117257142Y-121504819D02*
X117352380Y-121457200D01*
X117352380Y-121457200D02*
X117399999Y-121409580D01*
X118209523Y-120981009D02*
X117876190Y-120981009D01*
X117876190Y-121504819D02*
X117876190Y-120504819D01*
X117876190Y-120504819D02*
X118352380Y-120504819D01*
D11*
X124796666Y-121380814D02*
X124752857Y-121424624D01*
X124752857Y-121424624D02*
X124621428Y-121468433D01*
X124621428Y-121468433D02*
X124533809Y-121468433D01*
X124533809Y-121468433D02*
X124402381Y-121424624D01*
X124402381Y-121424624D02*
X124314762Y-121337004D01*
X124314762Y-121337004D02*
X124270952Y-121249385D01*
X124270952Y-121249385D02*
X124227143Y-121074147D01*
X124227143Y-121074147D02*
X124227143Y-120942719D01*
X124227143Y-120942719D02*
X124270952Y-120767481D01*
X124270952Y-120767481D02*
X124314762Y-120679862D01*
X124314762Y-120679862D02*
X124402381Y-120592243D01*
X124402381Y-120592243D02*
X124533809Y-120548433D01*
X124533809Y-120548433D02*
X124621428Y-120548433D01*
X124621428Y-120548433D02*
X124752857Y-120592243D01*
X124752857Y-120592243D02*
X124796666Y-120636052D01*
X125147143Y-120636052D02*
X125190952Y-120592243D01*
X125190952Y-120592243D02*
X125278571Y-120548433D01*
X125278571Y-120548433D02*
X125497619Y-120548433D01*
X125497619Y-120548433D02*
X125585238Y-120592243D01*
X125585238Y-120592243D02*
X125629047Y-120636052D01*
X125629047Y-120636052D02*
X125672857Y-120723671D01*
X125672857Y-120723671D02*
X125672857Y-120811290D01*
X125672857Y-120811290D02*
X125629047Y-120942719D01*
X125629047Y-120942719D02*
X125103333Y-121468433D01*
X125103333Y-121468433D02*
X125672857Y-121468433D01*
D10*
X75562919Y-85123904D02*
X75515300Y-85076285D01*
X75515300Y-85076285D02*
X75467680Y-84933428D01*
X75467680Y-84933428D02*
X75467680Y-84838190D01*
X75467680Y-84838190D02*
X75515300Y-84695333D01*
X75515300Y-84695333D02*
X75610538Y-84600095D01*
X75610538Y-84600095D02*
X75705776Y-84552476D01*
X75705776Y-84552476D02*
X75896252Y-84504857D01*
X75896252Y-84504857D02*
X76039109Y-84504857D01*
X76039109Y-84504857D02*
X76229585Y-84552476D01*
X76229585Y-84552476D02*
X76324823Y-84600095D01*
X76324823Y-84600095D02*
X76420061Y-84695333D01*
X76420061Y-84695333D02*
X76467680Y-84838190D01*
X76467680Y-84838190D02*
X76467680Y-84933428D01*
X76467680Y-84933428D02*
X76420061Y-85076285D01*
X76420061Y-85076285D02*
X76372442Y-85123904D01*
X75467680Y-85695333D02*
X75515300Y-85600095D01*
X75515300Y-85600095D02*
X75562919Y-85552476D01*
X75562919Y-85552476D02*
X75658157Y-85504857D01*
X75658157Y-85504857D02*
X75943871Y-85504857D01*
X75943871Y-85504857D02*
X76039109Y-85552476D01*
X76039109Y-85552476D02*
X76086728Y-85600095D01*
X76086728Y-85600095D02*
X76134347Y-85695333D01*
X76134347Y-85695333D02*
X76134347Y-85838190D01*
X76134347Y-85838190D02*
X76086728Y-85933428D01*
X76086728Y-85933428D02*
X76039109Y-85981047D01*
X76039109Y-85981047D02*
X75943871Y-86028666D01*
X75943871Y-86028666D02*
X75658157Y-86028666D01*
X75658157Y-86028666D02*
X75562919Y-85981047D01*
X75562919Y-85981047D02*
X75515300Y-85933428D01*
X75515300Y-85933428D02*
X75467680Y-85838190D01*
X75467680Y-85838190D02*
X75467680Y-85695333D01*
X76134347Y-86457238D02*
X75467680Y-86457238D01*
X76039109Y-86457238D02*
X76086728Y-86504857D01*
X76086728Y-86504857D02*
X76134347Y-86600095D01*
X76134347Y-86600095D02*
X76134347Y-86742952D01*
X76134347Y-86742952D02*
X76086728Y-86838190D01*
X76086728Y-86838190D02*
X75991490Y-86885809D01*
X75991490Y-86885809D02*
X75467680Y-86885809D01*
X76134347Y-87362000D02*
X75467680Y-87362000D01*
X76039109Y-87362000D02*
X76086728Y-87409619D01*
X76086728Y-87409619D02*
X76134347Y-87504857D01*
X76134347Y-87504857D02*
X76134347Y-87647714D01*
X76134347Y-87647714D02*
X76086728Y-87742952D01*
X76086728Y-87742952D02*
X75991490Y-87790571D01*
X75991490Y-87790571D02*
X75467680Y-87790571D01*
X75372442Y-88028667D02*
X75372442Y-88790571D01*
X76467680Y-89219143D02*
X76467680Y-89314381D01*
X76467680Y-89314381D02*
X76420061Y-89409619D01*
X76420061Y-89409619D02*
X76372442Y-89457238D01*
X76372442Y-89457238D02*
X76277204Y-89504857D01*
X76277204Y-89504857D02*
X76086728Y-89552476D01*
X76086728Y-89552476D02*
X75848633Y-89552476D01*
X75848633Y-89552476D02*
X75658157Y-89504857D01*
X75658157Y-89504857D02*
X75562919Y-89457238D01*
X75562919Y-89457238D02*
X75515300Y-89409619D01*
X75515300Y-89409619D02*
X75467680Y-89314381D01*
X75467680Y-89314381D02*
X75467680Y-89219143D01*
X75467680Y-89219143D02*
X75515300Y-89123905D01*
X75515300Y-89123905D02*
X75562919Y-89076286D01*
X75562919Y-89076286D02*
X75658157Y-89028667D01*
X75658157Y-89028667D02*
X75848633Y-88981048D01*
X75848633Y-88981048D02*
X76086728Y-88981048D01*
X76086728Y-88981048D02*
X76277204Y-89028667D01*
X76277204Y-89028667D02*
X76372442Y-89076286D01*
X76372442Y-89076286D02*
X76420061Y-89123905D01*
X76420061Y-89123905D02*
X76467680Y-89219143D01*
X75467680Y-90504857D02*
X75467680Y-89933429D01*
X75467680Y-90219143D02*
X76467680Y-90219143D01*
X76467680Y-90219143D02*
X76324823Y-90123905D01*
X76324823Y-90123905D02*
X76229585Y-90028667D01*
X76229585Y-90028667D02*
X76181966Y-89933429D01*
X75467680Y-90838191D02*
X76134347Y-91362000D01*
X76134347Y-90838191D02*
X75467680Y-91362000D01*
X76467680Y-91933429D02*
X76467680Y-92028667D01*
X76467680Y-92028667D02*
X76420061Y-92123905D01*
X76420061Y-92123905D02*
X76372442Y-92171524D01*
X76372442Y-92171524D02*
X76277204Y-92219143D01*
X76277204Y-92219143D02*
X76086728Y-92266762D01*
X76086728Y-92266762D02*
X75848633Y-92266762D01*
X75848633Y-92266762D02*
X75658157Y-92219143D01*
X75658157Y-92219143D02*
X75562919Y-92171524D01*
X75562919Y-92171524D02*
X75515300Y-92123905D01*
X75515300Y-92123905D02*
X75467680Y-92028667D01*
X75467680Y-92028667D02*
X75467680Y-91933429D01*
X75467680Y-91933429D02*
X75515300Y-91838191D01*
X75515300Y-91838191D02*
X75562919Y-91790572D01*
X75562919Y-91790572D02*
X75658157Y-91742953D01*
X75658157Y-91742953D02*
X75848633Y-91695334D01*
X75848633Y-91695334D02*
X76086728Y-91695334D01*
X76086728Y-91695334D02*
X76277204Y-91742953D01*
X76277204Y-91742953D02*
X76372442Y-91790572D01*
X76372442Y-91790572D02*
X76420061Y-91838191D01*
X76420061Y-91838191D02*
X76467680Y-91933429D01*
X76372442Y-92647715D02*
X76420061Y-92695334D01*
X76420061Y-92695334D02*
X76467680Y-92790572D01*
X76467680Y-92790572D02*
X76467680Y-93028667D01*
X76467680Y-93028667D02*
X76420061Y-93123905D01*
X76420061Y-93123905D02*
X76372442Y-93171524D01*
X76372442Y-93171524D02*
X76277204Y-93219143D01*
X76277204Y-93219143D02*
X76181966Y-93219143D01*
X76181966Y-93219143D02*
X76039109Y-93171524D01*
X76039109Y-93171524D02*
X75467680Y-92600096D01*
X75467680Y-92600096D02*
X75467680Y-93219143D01*
X73927680Y-69796166D02*
X73213395Y-69796166D01*
X73213395Y-69796166D02*
X73070538Y-69748547D01*
X73070538Y-69748547D02*
X72975300Y-69653309D01*
X72975300Y-69653309D02*
X72927680Y-69510452D01*
X72927680Y-69510452D02*
X72927680Y-69415214D01*
X73832442Y-70224738D02*
X73880061Y-70272357D01*
X73880061Y-70272357D02*
X73927680Y-70367595D01*
X73927680Y-70367595D02*
X73927680Y-70605690D01*
X73927680Y-70605690D02*
X73880061Y-70700928D01*
X73880061Y-70700928D02*
X73832442Y-70748547D01*
X73832442Y-70748547D02*
X73737204Y-70796166D01*
X73737204Y-70796166D02*
X73641966Y-70796166D01*
X73641966Y-70796166D02*
X73499109Y-70748547D01*
X73499109Y-70748547D02*
X72927680Y-70177119D01*
X72927680Y-70177119D02*
X72927680Y-70796166D01*
D11*
X108246666Y-121430814D02*
X108202857Y-121474624D01*
X108202857Y-121474624D02*
X108071428Y-121518433D01*
X108071428Y-121518433D02*
X107983809Y-121518433D01*
X107983809Y-121518433D02*
X107852381Y-121474624D01*
X107852381Y-121474624D02*
X107764762Y-121387004D01*
X107764762Y-121387004D02*
X107720952Y-121299385D01*
X107720952Y-121299385D02*
X107677143Y-121124147D01*
X107677143Y-121124147D02*
X107677143Y-120992719D01*
X107677143Y-120992719D02*
X107720952Y-120817481D01*
X107720952Y-120817481D02*
X107764762Y-120729862D01*
X107764762Y-120729862D02*
X107852381Y-120642243D01*
X107852381Y-120642243D02*
X107983809Y-120598433D01*
X107983809Y-120598433D02*
X108071428Y-120598433D01*
X108071428Y-120598433D02*
X108202857Y-120642243D01*
X108202857Y-120642243D02*
X108246666Y-120686052D01*
X109122857Y-121518433D02*
X108597143Y-121518433D01*
X108860000Y-121518433D02*
X108860000Y-120598433D01*
X108860000Y-120598433D02*
X108772381Y-120729862D01*
X108772381Y-120729862D02*
X108684762Y-120817481D01*
X108684762Y-120817481D02*
X108597143Y-120861290D01*
D12*
%TO.C,C2*%
X122650000Y-119550000D02*
X122650000Y-122550000D01*
X122650000Y-122550000D02*
X127250000Y-122550000D01*
X127250000Y-119550000D02*
X122650000Y-119550000D01*
X127250000Y-122550000D02*
X127250000Y-119550000D01*
%TO.C,K2*%
X131150000Y-110100000D02*
X131150000Y-82300000D01*
X131150000Y-82300000D02*
X118650000Y-82300000D01*
X130150000Y-111100000D02*
X131150000Y-110100000D01*
X127150000Y-108800000D02*
X122650000Y-108800000D01*
X118650000Y-111100000D02*
X130150000Y-111100000D01*
X118650000Y-82300000D02*
X118650000Y-111100000D01*
%TO.C,D1*%
X107160000Y-116100000D02*
X108100000Y-116100000D01*
X108100000Y-114800000D02*
X108100000Y-117400000D01*
X108100000Y-117400000D02*
X111300000Y-117400000D01*
X108480000Y-114800000D02*
X108480000Y-117400000D01*
X108580000Y-114800000D02*
X108580000Y-117400000D01*
X108680000Y-114800000D02*
X108680000Y-117400000D01*
X111300000Y-114800000D02*
X108100000Y-114800000D01*
X111300000Y-117400000D02*
X111300000Y-114800000D01*
X112240000Y-116100000D02*
X111300000Y-116100000D01*
%TO.C,C1*%
X110700000Y-122600000D02*
X110700000Y-119600000D01*
X110700000Y-119600000D02*
X106100000Y-119600000D01*
X106100000Y-122600000D02*
X110700000Y-122600000D01*
X106100000Y-119600000D02*
X106100000Y-122600000D01*
%TO.C,D2*%
X126240000Y-116200000D02*
X125300000Y-116200000D01*
X125300000Y-117500000D02*
X125300000Y-114900000D01*
X125300000Y-114900000D02*
X122100000Y-114900000D01*
X124920000Y-117500000D02*
X124920000Y-114900000D01*
X124820000Y-117500000D02*
X124820000Y-114900000D01*
X124720000Y-117500000D02*
X124720000Y-114900000D01*
X122100000Y-117500000D02*
X125300000Y-117500000D01*
X122100000Y-114900000D02*
X122100000Y-117500000D01*
X121160000Y-116200000D02*
X122100000Y-116200000D01*
%TO.C,K1*%
X114900000Y-110100000D02*
X114900000Y-82300000D01*
X114900000Y-82300000D02*
X102400000Y-82300000D01*
X113900000Y-111100000D02*
X114900000Y-110100000D01*
X110900000Y-108800000D02*
X106400000Y-108800000D01*
X102400000Y-111100000D02*
X113900000Y-111100000D01*
X102400000Y-82300000D02*
X102400000Y-111100000D01*
%TD*%
M02*
