%TF.GenerationSoftware,KiCad,Pcbnew,7.0.7+dfsg-1*%
%TF.CreationDate,2023-09-26T20:47:14-04:00*%
%TF.ProjectId,Relaybox,52656c61-7962-46f7-982e-6b696361645f,v1*%
%TF.SameCoordinates,Original*%
%TF.FileFunction,Copper,L1,Top*%
%TF.FilePolarity,Positive*%
%FSLAX46Y46*%
G04 Gerber Fmt 4.6, Leading zero omitted, Abs format (unit mm)*
G04 Created by KiCad (PCBNEW 7.0.7+dfsg-1) date 2023-09-26 20:47:14*
%MOMM*%
%LPD*%
G01*
G04 APERTURE LIST*
%TA.AperFunction,ComponentPad*%
%ADD10C,1.400000*%
%TD*%
%TA.AperFunction,ComponentPad*%
%ADD11C,3.556000*%
%TD*%
%TA.AperFunction,ComponentPad*%
%ADD12R,2.000000X2.000000*%
%TD*%
%TA.AperFunction,ComponentPad*%
%ADD13C,2.000000*%
%TD*%
%TA.AperFunction,ComponentPad*%
%ADD14O,2.000000X2.000000*%
%TD*%
%TA.AperFunction,Conductor*%
%ADD15C,3.000000*%
%TD*%
G04 APERTURE END LIST*
D10*
%TO.P,C2,1*%
%TO.N,Net-(D1-A)*%
X123700000Y-121050000D03*
%TO.P,C2,2*%
%TO.N,Net-(D2-K)*%
X126200000Y-121050000D03*
%TD*%
D11*
%TO.P,J3,1,Pin_1*%
%TO.N,Net-(J3-Pin_1)*%
X142900000Y-89600000D03*
%TO.P,J3,2,Pin_2*%
%TO.N,Net-(J3-Pin_2)*%
X142900000Y-80075000D03*
%TO.P,J3,3,Pin_3*%
%TO.N,Net-(J2-Pin_2)*%
X142900000Y-70550000D03*
%TD*%
%TO.P,J2,1,Pin_1*%
%TO.N,Net-(J2-Pin_1)*%
X90845000Y-79972000D03*
%TO.P,J2,2,Pin_2*%
%TO.N,Net-(J2-Pin_2)*%
X90845000Y-70447000D03*
%TD*%
D12*
%TO.P,K2,1*%
%TO.N,Net-(D2-K)*%
X128650000Y-108800000D03*
D13*
%TO.P,K2,2*%
%TO.N,Net-(D1-A)*%
X128650000Y-93800000D03*
X121150000Y-93800000D03*
%TO.P,K2,3*%
%TO.N,Net-(J3-Pin_2)*%
X128650000Y-88800000D03*
X121150000Y-88800000D03*
%TO.P,K2,4*%
%TO.N,Net-(J2-Pin_2)*%
X128650000Y-83800000D03*
X121150000Y-83800000D03*
%TO.P,K2,8*%
%TO.N,Net-(D1-A)*%
X121150000Y-108800000D03*
%TD*%
D11*
%TO.P,J1,1,Pin_1*%
%TO.N,Net-(D1-K)*%
X107200000Y-129950000D03*
%TO.P,J1,2,Pin_2*%
%TO.N,Net-(D1-A)*%
X116725000Y-129950000D03*
%TO.P,J1,3,Pin_3*%
%TO.N,Net-(D2-K)*%
X126250000Y-129950000D03*
%TD*%
D12*
%TO.P,D1,1,K*%
%TO.N,Net-(D1-K)*%
X107160000Y-116100000D03*
D14*
%TO.P,D1,2,A*%
%TO.N,Net-(D1-A)*%
X112240000Y-116100000D03*
%TD*%
D10*
%TO.P,C1,1*%
%TO.N,Net-(D1-A)*%
X109650000Y-121100000D03*
%TO.P,C1,2*%
%TO.N,Net-(D1-K)*%
X107150000Y-121100000D03*
%TD*%
D12*
%TO.P,D2,1,K*%
%TO.N,Net-(D2-K)*%
X126240000Y-116200000D03*
D14*
%TO.P,D2,2,A*%
%TO.N,Net-(D1-A)*%
X121160000Y-116200000D03*
%TD*%
D12*
%TO.P,K1,1*%
%TO.N,Net-(D1-A)*%
X112400000Y-108800000D03*
D13*
%TO.P,K1,2*%
%TO.N,Net-(J2-Pin_2)*%
X112400000Y-93800000D03*
X104900000Y-93800000D03*
%TO.P,K1,3*%
%TO.N,Net-(J2-Pin_1)*%
X112400000Y-88800000D03*
X104900000Y-88800000D03*
%TO.P,K1,4*%
%TO.N,Net-(J3-Pin_1)*%
X112400000Y-83800000D03*
X104900000Y-83800000D03*
%TO.P,K1,8*%
%TO.N,Net-(D1-K)*%
X104900000Y-108800000D03*
%TD*%
D15*
%TO.N,Net-(J3-Pin_1)*%
X133150000Y-99350000D02*
X120900000Y-99350000D01*
X142900000Y-89600000D02*
X133150000Y-99350000D01*
X116850000Y-88250000D02*
X112400000Y-83800000D01*
X116850000Y-95300000D02*
X116850000Y-88250000D01*
X120900000Y-99350000D02*
X116850000Y-95300000D01*
%TO.N,Net-(J3-Pin_2)*%
X134175000Y-88800000D02*
X142900000Y-80075000D01*
X128650000Y-88800000D02*
X134175000Y-88800000D01*
%TO.N,Net-(J2-Pin_1)*%
X99673000Y-88800000D02*
X90845000Y-79972000D01*
X104900000Y-88800000D02*
X99673000Y-88800000D01*
%TO.N,Net-(J2-Pin_2)*%
X121150000Y-83800000D02*
X121150000Y-70550000D01*
X90948000Y-70550000D02*
X90845000Y-70447000D01*
X96700000Y-93800000D02*
X85300000Y-82400000D01*
X104900000Y-93800000D02*
X96700000Y-93800000D01*
X85300000Y-75992000D02*
X90845000Y-70447000D01*
X121150000Y-70550000D02*
X90948000Y-70550000D01*
X142900000Y-70550000D02*
X121150000Y-70550000D01*
X85300000Y-82400000D02*
X85300000Y-75992000D01*
%TD*%
%TA.AperFunction,Conductor*%
%TO.N,Net-(D1-A)*%
G36*
X156842539Y-63770185D02*
G01*
X156888294Y-63822989D01*
X156899500Y-63874500D01*
X156899500Y-143825500D01*
X156879815Y-143892539D01*
X156827011Y-143938294D01*
X156775500Y-143949500D01*
X76824500Y-143949500D01*
X76757461Y-143929815D01*
X76711706Y-143877011D01*
X76700500Y-143825500D01*
X76700500Y-129950007D01*
X104916611Y-129950007D01*
X104936144Y-130248025D01*
X104936145Y-130248035D01*
X104936146Y-130248042D01*
X104936148Y-130248052D01*
X104994414Y-130540977D01*
X104994419Y-130540997D01*
X105090420Y-130823807D01*
X105090424Y-130823817D01*
X105160541Y-130966000D01*
X105222527Y-131091695D01*
X105388260Y-131339731D01*
X105388467Y-131340040D01*
X105585399Y-131564600D01*
X105760758Y-131718384D01*
X105809961Y-131761534D01*
X106058305Y-131927473D01*
X106188302Y-131991580D01*
X106326182Y-132059575D01*
X106326192Y-132059579D01*
X106609002Y-132155580D01*
X106609006Y-132155581D01*
X106609015Y-132155584D01*
X106901958Y-132213854D01*
X106930577Y-132215729D01*
X107199993Y-132233389D01*
X107200000Y-132233389D01*
X107200007Y-132233389D01*
X107438607Y-132217749D01*
X107498042Y-132213854D01*
X107790985Y-132155584D01*
X107792423Y-132155096D01*
X108073807Y-132059579D01*
X108073817Y-132059575D01*
X108074756Y-132059112D01*
X108341695Y-131927473D01*
X108590039Y-131761534D01*
X108814600Y-131564600D01*
X109011534Y-131340039D01*
X109177473Y-131091695D01*
X109309576Y-130823815D01*
X109309641Y-130823625D01*
X109405580Y-130540997D01*
X109405580Y-130540996D01*
X109405584Y-130540985D01*
X109463854Y-130248042D01*
X109467749Y-130188607D01*
X109483389Y-129950007D01*
X109483389Y-129950000D01*
X114442112Y-129950000D01*
X114461642Y-130247975D01*
X114461643Y-130247984D01*
X114519899Y-130540850D01*
X114519903Y-130540867D01*
X114615883Y-130823615D01*
X114615887Y-130823625D01*
X114747961Y-131091445D01*
X114913863Y-131339735D01*
X114945563Y-131375881D01*
X114945564Y-131375881D01*
X115746995Y-130574450D01*
X115808318Y-130540965D01*
X115878009Y-130545949D01*
X115930529Y-130583466D01*
X116003102Y-130671897D01*
X116091532Y-130744469D01*
X116130866Y-130802214D01*
X116132737Y-130872059D01*
X116100548Y-130928003D01*
X115299117Y-131729434D01*
X115299117Y-131729435D01*
X115335266Y-131761136D01*
X115335271Y-131761141D01*
X115583554Y-131927038D01*
X115851374Y-132059112D01*
X115851384Y-132059116D01*
X116134132Y-132155096D01*
X116134149Y-132155100D01*
X116427015Y-132213356D01*
X116427024Y-132213357D01*
X116725000Y-132232887D01*
X117022975Y-132213357D01*
X117022984Y-132213356D01*
X117315850Y-132155100D01*
X117315867Y-132155096D01*
X117598615Y-132059116D01*
X117598625Y-132059112D01*
X117866445Y-131927038D01*
X118114731Y-131761139D01*
X118150881Y-131729434D01*
X117349450Y-130928003D01*
X117315965Y-130866680D01*
X117320949Y-130796988D01*
X117358464Y-130744472D01*
X117446897Y-130671897D01*
X117519471Y-130583464D01*
X117577213Y-130544132D01*
X117647058Y-130542261D01*
X117703003Y-130574450D01*
X118504434Y-131375881D01*
X118536139Y-131339731D01*
X118702038Y-131091445D01*
X118834112Y-130823625D01*
X118834116Y-130823615D01*
X118930096Y-130540867D01*
X118930100Y-130540850D01*
X118988356Y-130247984D01*
X118988357Y-130247975D01*
X119007887Y-129950007D01*
X123966611Y-129950007D01*
X123986144Y-130248025D01*
X123986145Y-130248035D01*
X123986146Y-130248042D01*
X123986148Y-130248052D01*
X124044414Y-130540977D01*
X124044419Y-130540997D01*
X124140420Y-130823807D01*
X124140424Y-130823817D01*
X124210541Y-130966000D01*
X124272527Y-131091695D01*
X124438260Y-131339731D01*
X124438467Y-131340040D01*
X124635399Y-131564600D01*
X124810758Y-131718384D01*
X124859961Y-131761534D01*
X125108305Y-131927473D01*
X125238302Y-131991580D01*
X125376182Y-132059575D01*
X125376192Y-132059579D01*
X125659002Y-132155580D01*
X125659006Y-132155581D01*
X125659015Y-132155584D01*
X125951958Y-132213854D01*
X125980577Y-132215729D01*
X126249993Y-132233389D01*
X126250000Y-132233389D01*
X126250007Y-132233389D01*
X126488607Y-132217749D01*
X126548042Y-132213854D01*
X126840985Y-132155584D01*
X126842423Y-132155096D01*
X127123807Y-132059579D01*
X127123817Y-132059575D01*
X127124756Y-132059112D01*
X127391695Y-131927473D01*
X127640039Y-131761534D01*
X127864600Y-131564600D01*
X128061534Y-131340039D01*
X128227473Y-131091695D01*
X128359576Y-130823815D01*
X128359641Y-130823625D01*
X128455580Y-130540997D01*
X128455580Y-130540996D01*
X128455584Y-130540985D01*
X128513854Y-130248042D01*
X128517749Y-130188607D01*
X128533389Y-129950007D01*
X128533389Y-129949992D01*
X128513855Y-129651974D01*
X128513854Y-129651958D01*
X128455584Y-129359015D01*
X128359576Y-129076185D01*
X128338436Y-129033318D01*
X128227476Y-128808313D01*
X128227473Y-128808306D01*
X128061534Y-128559961D01*
X128018384Y-128510758D01*
X127864600Y-128335399D01*
X127640040Y-128138467D01*
X127391700Y-127972530D01*
X127391697Y-127972528D01*
X127391695Y-127972527D01*
X127391687Y-127972523D01*
X127123817Y-127840424D01*
X127123807Y-127840420D01*
X126840997Y-127744419D01*
X126840977Y-127744414D01*
X126548052Y-127686148D01*
X126548042Y-127686146D01*
X126548035Y-127686145D01*
X126548025Y-127686144D01*
X126250007Y-127666611D01*
X126249993Y-127666611D01*
X125951974Y-127686144D01*
X125951962Y-127686145D01*
X125951958Y-127686146D01*
X125951950Y-127686147D01*
X125951947Y-127686148D01*
X125659022Y-127744414D01*
X125659007Y-127744418D01*
X125376189Y-127840422D01*
X125376168Y-127840431D01*
X125108313Y-127972523D01*
X125108300Y-127972530D01*
X124859959Y-128138467D01*
X124635399Y-128335399D01*
X124438467Y-128559959D01*
X124272530Y-128808300D01*
X124272523Y-128808313D01*
X124140431Y-129076168D01*
X124140422Y-129076189D01*
X124044418Y-129359007D01*
X124044414Y-129359022D01*
X123986148Y-129651947D01*
X123986144Y-129651974D01*
X123966611Y-129949992D01*
X123966611Y-129950007D01*
X119007887Y-129950007D01*
X119007887Y-129950000D01*
X118988357Y-129652024D01*
X118988356Y-129652015D01*
X118930100Y-129359149D01*
X118930096Y-129359132D01*
X118834116Y-129076384D01*
X118834112Y-129076374D01*
X118702038Y-128808554D01*
X118536141Y-128560271D01*
X118536136Y-128560266D01*
X118504434Y-128524117D01*
X117703003Y-129325548D01*
X117641680Y-129359033D01*
X117571988Y-129354049D01*
X117519469Y-129316532D01*
X117446897Y-129228102D01*
X117358466Y-129155529D01*
X117319132Y-129097784D01*
X117317261Y-129027939D01*
X117349450Y-128971995D01*
X118150881Y-128170564D01*
X118150881Y-128170563D01*
X118114735Y-128138863D01*
X117866445Y-127972961D01*
X117598625Y-127840887D01*
X117598615Y-127840883D01*
X117315867Y-127744903D01*
X117315850Y-127744899D01*
X117022984Y-127686643D01*
X117022975Y-127686642D01*
X116724999Y-127667112D01*
X116427024Y-127686642D01*
X116427015Y-127686643D01*
X116134149Y-127744899D01*
X116134132Y-127744903D01*
X115851384Y-127840883D01*
X115851374Y-127840887D01*
X115583554Y-127972961D01*
X115335267Y-128138861D01*
X115335261Y-128138866D01*
X115299117Y-128170562D01*
X115299117Y-128170565D01*
X116100548Y-128971995D01*
X116134033Y-129033318D01*
X116129049Y-129103009D01*
X116091533Y-129155528D01*
X116003102Y-129228102D01*
X115930528Y-129316533D01*
X115872782Y-129355867D01*
X115802938Y-129357736D01*
X115746995Y-129325548D01*
X114945565Y-128524117D01*
X114945562Y-128524117D01*
X114913866Y-128560261D01*
X114913861Y-128560267D01*
X114747961Y-128808554D01*
X114615887Y-129076374D01*
X114615883Y-129076384D01*
X114519903Y-129359132D01*
X114519899Y-129359149D01*
X114461643Y-129652015D01*
X114461642Y-129652024D01*
X114442112Y-129950000D01*
X109483389Y-129950000D01*
X109483389Y-129949992D01*
X109463855Y-129651974D01*
X109463854Y-129651958D01*
X109405584Y-129359015D01*
X109309576Y-129076185D01*
X109288436Y-129033318D01*
X109177476Y-128808313D01*
X109177473Y-128808306D01*
X109011534Y-128559961D01*
X108968384Y-128510758D01*
X108814600Y-128335399D01*
X108590040Y-128138467D01*
X108341700Y-127972530D01*
X108341697Y-127972528D01*
X108341695Y-127972527D01*
X108341687Y-127972523D01*
X108073817Y-127840424D01*
X108073807Y-127840420D01*
X107790997Y-127744419D01*
X107790977Y-127744414D01*
X107498052Y-127686148D01*
X107498042Y-127686146D01*
X107498035Y-127686145D01*
X107498025Y-127686144D01*
X107200007Y-127666611D01*
X107199993Y-127666611D01*
X106901974Y-127686144D01*
X106901962Y-127686145D01*
X106901958Y-127686146D01*
X106901950Y-127686147D01*
X106901947Y-127686148D01*
X106609022Y-127744414D01*
X106609007Y-127744418D01*
X106326189Y-127840422D01*
X106326168Y-127840431D01*
X106058313Y-127972523D01*
X106058300Y-127972530D01*
X105809959Y-128138467D01*
X105585399Y-128335399D01*
X105388467Y-128559959D01*
X105222530Y-128808300D01*
X105222523Y-128808313D01*
X105090431Y-129076168D01*
X105090422Y-129076189D01*
X104994418Y-129359007D01*
X104994414Y-129359022D01*
X104936148Y-129651947D01*
X104936144Y-129651974D01*
X104916611Y-129949992D01*
X104916611Y-129950007D01*
X76700500Y-129950007D01*
X76700500Y-121100000D01*
X105944357Y-121100000D01*
X105964884Y-121321535D01*
X105964885Y-121321537D01*
X106025769Y-121535523D01*
X106025775Y-121535538D01*
X106124938Y-121734683D01*
X106124943Y-121734691D01*
X106259020Y-121912238D01*
X106423437Y-122062123D01*
X106423439Y-122062125D01*
X106612595Y-122179245D01*
X106612596Y-122179245D01*
X106612599Y-122179247D01*
X106820060Y-122259618D01*
X107038757Y-122300500D01*
X107038759Y-122300500D01*
X107261241Y-122300500D01*
X107261243Y-122300500D01*
X107479940Y-122259618D01*
X107687401Y-122179247D01*
X107876562Y-122062124D01*
X108040981Y-121912236D01*
X108175058Y-121734689D01*
X108274229Y-121535528D01*
X108280994Y-121511750D01*
X108318271Y-121452661D01*
X108381580Y-121423102D01*
X108450820Y-121432463D01*
X108504007Y-121477772D01*
X108519525Y-121511753D01*
X108526236Y-121535342D01*
X108526239Y-121535348D01*
X108625369Y-121734428D01*
X108641137Y-121755308D01*
X108641138Y-121755308D01*
X109149447Y-121247000D01*
X109210770Y-121213515D01*
X109280462Y-121218499D01*
X109336395Y-121260371D01*
X109340933Y-121266854D01*
X109343993Y-121271537D01*
X109376658Y-121321535D01*
X109388936Y-121340327D01*
X109424360Y-121367898D01*
X109488600Y-121417898D01*
X109529413Y-121474609D01*
X109533088Y-121544382D01*
X109500119Y-121603433D01*
X108996672Y-122106879D01*
X108996672Y-122106880D01*
X109112821Y-122178797D01*
X109112822Y-122178798D01*
X109320195Y-122259134D01*
X109538807Y-122300000D01*
X109761193Y-122300000D01*
X109979809Y-122259133D01*
X110187168Y-122178801D01*
X110187181Y-122178795D01*
X110303326Y-122106879D01*
X109796406Y-121599958D01*
X109762921Y-121538635D01*
X109767905Y-121468943D01*
X109809777Y-121413010D01*
X109825062Y-121403227D01*
X109867947Y-121380019D01*
X109947060Y-121294079D01*
X109950554Y-121286111D01*
X109995504Y-121232628D01*
X110062239Y-121211934D01*
X110129568Y-121230605D01*
X110151791Y-121248239D01*
X110658861Y-121755308D01*
X110674631Y-121734425D01*
X110674633Y-121734422D01*
X110773759Y-121535350D01*
X110834621Y-121321439D01*
X110855141Y-121100000D01*
X110855141Y-121099999D01*
X110850508Y-121050000D01*
X122494859Y-121050000D01*
X122515378Y-121271439D01*
X122576240Y-121485350D01*
X122675369Y-121684428D01*
X122691137Y-121705308D01*
X122691138Y-121705308D01*
X123199447Y-121197000D01*
X123260770Y-121163515D01*
X123330462Y-121168499D01*
X123386395Y-121210371D01*
X123390937Y-121216859D01*
X123436184Y-121286116D01*
X123438936Y-121290327D01*
X123479034Y-121321536D01*
X123538600Y-121367898D01*
X123579413Y-121424609D01*
X123583088Y-121494382D01*
X123550119Y-121553433D01*
X123046672Y-122056879D01*
X123046672Y-122056880D01*
X123162821Y-122128797D01*
X123162822Y-122128798D01*
X123370195Y-122209134D01*
X123588807Y-122250000D01*
X123811193Y-122250000D01*
X124029809Y-122209133D01*
X124237168Y-122128801D01*
X124237181Y-122128795D01*
X124353326Y-122056879D01*
X123846406Y-121549958D01*
X123812921Y-121488635D01*
X123817905Y-121418943D01*
X123859777Y-121363010D01*
X123875062Y-121353227D01*
X123917947Y-121330019D01*
X123997060Y-121244079D01*
X124000554Y-121236111D01*
X124045504Y-121182628D01*
X124112239Y-121161934D01*
X124179568Y-121180605D01*
X124201791Y-121198239D01*
X124708861Y-121705308D01*
X124724631Y-121684425D01*
X124724633Y-121684422D01*
X124823760Y-121485348D01*
X124823761Y-121485345D01*
X124830473Y-121461756D01*
X124867750Y-121402662D01*
X124931059Y-121373102D01*
X125000299Y-121382462D01*
X125053487Y-121427771D01*
X125069005Y-121461750D01*
X125075720Y-121485350D01*
X125075771Y-121485527D01*
X125075775Y-121485538D01*
X125174938Y-121684683D01*
X125174943Y-121684691D01*
X125309020Y-121862238D01*
X125473437Y-122012123D01*
X125473439Y-122012125D01*
X125662595Y-122129245D01*
X125662596Y-122129245D01*
X125662599Y-122129247D01*
X125870060Y-122209618D01*
X126088757Y-122250500D01*
X126088759Y-122250500D01*
X126311241Y-122250500D01*
X126311243Y-122250500D01*
X126529940Y-122209618D01*
X126737401Y-122129247D01*
X126926562Y-122012124D01*
X127090981Y-121862236D01*
X127225058Y-121684689D01*
X127324229Y-121485528D01*
X127385115Y-121271536D01*
X127405643Y-121050000D01*
X127402204Y-121012892D01*
X127385115Y-120828464D01*
X127385114Y-120828462D01*
X127382700Y-120819979D01*
X127324229Y-120614472D01*
X127324224Y-120614461D01*
X127225061Y-120415316D01*
X127225056Y-120415308D01*
X127090979Y-120237761D01*
X126926562Y-120087876D01*
X126926560Y-120087874D01*
X126737404Y-119970754D01*
X126737398Y-119970752D01*
X126529940Y-119890382D01*
X126311243Y-119849500D01*
X126088757Y-119849500D01*
X125870060Y-119890382D01*
X125740995Y-119940382D01*
X125662601Y-119970752D01*
X125662595Y-119970754D01*
X125473439Y-120087874D01*
X125473437Y-120087876D01*
X125309020Y-120237761D01*
X125174943Y-120415308D01*
X125174938Y-120415316D01*
X125075775Y-120614461D01*
X125075768Y-120614479D01*
X125069005Y-120638249D01*
X125031725Y-120697342D01*
X124968414Y-120726898D01*
X124899175Y-120717534D01*
X124845990Y-120672223D01*
X124830473Y-120638244D01*
X124823761Y-120614652D01*
X124823760Y-120614651D01*
X124724635Y-120415580D01*
X124724630Y-120415572D01*
X124708860Y-120394690D01*
X124200552Y-120902999D01*
X124139229Y-120936484D01*
X124069537Y-120931500D01*
X124013604Y-120889628D01*
X124009062Y-120883139D01*
X123961065Y-120809674D01*
X123961062Y-120809671D01*
X123861399Y-120732100D01*
X123820586Y-120675390D01*
X123816911Y-120605617D01*
X123849880Y-120546566D01*
X124353327Y-120043119D01*
X124237178Y-119971202D01*
X124237177Y-119971201D01*
X124029804Y-119890865D01*
X123811193Y-119850000D01*
X123588807Y-119850000D01*
X123370195Y-119890865D01*
X123162824Y-119971200D01*
X123162823Y-119971201D01*
X123046671Y-120043119D01*
X123553594Y-120550041D01*
X123587079Y-120611364D01*
X123582095Y-120681055D01*
X123540224Y-120736989D01*
X123524931Y-120746776D01*
X123482056Y-120769979D01*
X123482052Y-120769981D01*
X123402939Y-120855922D01*
X123399441Y-120863896D01*
X123354481Y-120917379D01*
X123287744Y-120938065D01*
X123220417Y-120919386D01*
X123198207Y-120901760D01*
X122691137Y-120394690D01*
X122691137Y-120394691D01*
X122675368Y-120415574D01*
X122576240Y-120614649D01*
X122515378Y-120828560D01*
X122494859Y-121049999D01*
X122494859Y-121050000D01*
X110850508Y-121050000D01*
X110834621Y-120878560D01*
X110773759Y-120664649D01*
X110674635Y-120465580D01*
X110674630Y-120465572D01*
X110658860Y-120444690D01*
X110150552Y-120952999D01*
X110089229Y-120986484D01*
X110019537Y-120981500D01*
X109963604Y-120939628D01*
X109959062Y-120933139D01*
X109911065Y-120859674D01*
X109911062Y-120859671D01*
X109811399Y-120782100D01*
X109770586Y-120725390D01*
X109766911Y-120655617D01*
X109799880Y-120596566D01*
X110303327Y-120093119D01*
X110187178Y-120021202D01*
X110187177Y-120021201D01*
X109979804Y-119940865D01*
X109761193Y-119900000D01*
X109538807Y-119900000D01*
X109320195Y-119940865D01*
X109112824Y-120021200D01*
X109112823Y-120021201D01*
X108996671Y-120093119D01*
X109503594Y-120600041D01*
X109537079Y-120661364D01*
X109532095Y-120731055D01*
X109490224Y-120786989D01*
X109474931Y-120796776D01*
X109432056Y-120819979D01*
X109432052Y-120819981D01*
X109352939Y-120905922D01*
X109349441Y-120913896D01*
X109304481Y-120967379D01*
X109237744Y-120988065D01*
X109170417Y-120969386D01*
X109148207Y-120951760D01*
X108641138Y-120444690D01*
X108641137Y-120444691D01*
X108625368Y-120465574D01*
X108526239Y-120664651D01*
X108526238Y-120664652D01*
X108519525Y-120688248D01*
X108482245Y-120747340D01*
X108418935Y-120776898D01*
X108349696Y-120767535D01*
X108296510Y-120722224D01*
X108280995Y-120688253D01*
X108274229Y-120664472D01*
X108274224Y-120664461D01*
X108175061Y-120465316D01*
X108175056Y-120465308D01*
X108040979Y-120287761D01*
X107876562Y-120137876D01*
X107876560Y-120137874D01*
X107687404Y-120020754D01*
X107687398Y-120020752D01*
X107479940Y-119940382D01*
X107261243Y-119899500D01*
X107038757Y-119899500D01*
X106820060Y-119940382D01*
X106740505Y-119971202D01*
X106612601Y-120020752D01*
X106612595Y-120020754D01*
X106423439Y-120137874D01*
X106423437Y-120137876D01*
X106259020Y-120287761D01*
X106124943Y-120465308D01*
X106124938Y-120465316D01*
X106025775Y-120664461D01*
X106025769Y-120664476D01*
X105964885Y-120878462D01*
X105964884Y-120878464D01*
X105944357Y-121099999D01*
X105944357Y-121100000D01*
X76700500Y-121100000D01*
X76700500Y-117147870D01*
X105659500Y-117147870D01*
X105659501Y-117147876D01*
X105665908Y-117207483D01*
X105716202Y-117342328D01*
X105716206Y-117342335D01*
X105802452Y-117457544D01*
X105802455Y-117457547D01*
X105917664Y-117543793D01*
X105917671Y-117543797D01*
X106052517Y-117594091D01*
X106052516Y-117594091D01*
X106059444Y-117594835D01*
X106112127Y-117600500D01*
X108207872Y-117600499D01*
X108267483Y-117594091D01*
X108402331Y-117543796D01*
X108517546Y-117457546D01*
X108603796Y-117342331D01*
X108654091Y-117207483D01*
X108660500Y-117147873D01*
X108660500Y-116350000D01*
X110755960Y-116350000D01*
X110816411Y-116588716D01*
X110916267Y-116816367D01*
X111052232Y-117024478D01*
X111220592Y-117207364D01*
X111220602Y-117207373D01*
X111416762Y-117360051D01*
X111416771Y-117360057D01*
X111635385Y-117478364D01*
X111635396Y-117478369D01*
X111870507Y-117559083D01*
X111989999Y-117579023D01*
X111990000Y-117579022D01*
X111990000Y-116712301D01*
X112009685Y-116645262D01*
X112062489Y-116599507D01*
X112131647Y-116589563D01*
X112204237Y-116600000D01*
X112204238Y-116600000D01*
X112275762Y-116600000D01*
X112275763Y-116600000D01*
X112348353Y-116589563D01*
X112417512Y-116599507D01*
X112470315Y-116645262D01*
X112490000Y-116712301D01*
X112490000Y-117579023D01*
X112609492Y-117559083D01*
X112844603Y-117478369D01*
X112844614Y-117478364D01*
X113063228Y-117360057D01*
X113063237Y-117360051D01*
X113259397Y-117207373D01*
X113259407Y-117207364D01*
X113427767Y-117024478D01*
X113563732Y-116816367D01*
X113663588Y-116588716D01*
X113698716Y-116450000D01*
X119675960Y-116450000D01*
X119736411Y-116688716D01*
X119836267Y-116916367D01*
X119972232Y-117124478D01*
X120140592Y-117307364D01*
X120140602Y-117307373D01*
X120336762Y-117460051D01*
X120336771Y-117460057D01*
X120555385Y-117578364D01*
X120555396Y-117578369D01*
X120790507Y-117659083D01*
X120909999Y-117679023D01*
X120910000Y-117679022D01*
X120910000Y-116812301D01*
X120929685Y-116745262D01*
X120982489Y-116699507D01*
X121051647Y-116689563D01*
X121124237Y-116700000D01*
X121124238Y-116700000D01*
X121195762Y-116700000D01*
X121195763Y-116700000D01*
X121268352Y-116689563D01*
X121337510Y-116699507D01*
X121390314Y-116745261D01*
X121409999Y-116812301D01*
X121409999Y-117679022D01*
X121410000Y-117679023D01*
X121529492Y-117659083D01*
X121764603Y-117578369D01*
X121764614Y-117578364D01*
X121983228Y-117460057D01*
X121983237Y-117460051D01*
X122179397Y-117307373D01*
X122179407Y-117307364D01*
X122234176Y-117247870D01*
X124739500Y-117247870D01*
X124739501Y-117247876D01*
X124745908Y-117307483D01*
X124796202Y-117442328D01*
X124796206Y-117442335D01*
X124882452Y-117557544D01*
X124882455Y-117557547D01*
X124997664Y-117643793D01*
X124997671Y-117643797D01*
X125132517Y-117694091D01*
X125132516Y-117694091D01*
X125139444Y-117694835D01*
X125192127Y-117700500D01*
X127287872Y-117700499D01*
X127347483Y-117694091D01*
X127482331Y-117643796D01*
X127597546Y-117557546D01*
X127683796Y-117442331D01*
X127734091Y-117307483D01*
X127740500Y-117247873D01*
X127740499Y-115152128D01*
X127734091Y-115092517D01*
X127719027Y-115052129D01*
X127683797Y-114957671D01*
X127683793Y-114957664D01*
X127597547Y-114842455D01*
X127597544Y-114842452D01*
X127482335Y-114756206D01*
X127482328Y-114756202D01*
X127347482Y-114705908D01*
X127347483Y-114705908D01*
X127287883Y-114699501D01*
X127287881Y-114699500D01*
X127287873Y-114699500D01*
X127287864Y-114699500D01*
X125192129Y-114699500D01*
X125192123Y-114699501D01*
X125132516Y-114705908D01*
X124997671Y-114756202D01*
X124997664Y-114756206D01*
X124882455Y-114842452D01*
X124882452Y-114842455D01*
X124796206Y-114957664D01*
X124796202Y-114957671D01*
X124745908Y-115092517D01*
X124739501Y-115152116D01*
X124739501Y-115152123D01*
X124739500Y-115152135D01*
X124739500Y-117247870D01*
X122234176Y-117247870D01*
X122347767Y-117124478D01*
X122483732Y-116916367D01*
X122583588Y-116688716D01*
X122644040Y-116450000D01*
X121773347Y-116450000D01*
X121706308Y-116430315D01*
X121660553Y-116377511D01*
X121650609Y-116308353D01*
X121654369Y-116291067D01*
X121660000Y-116271888D01*
X121660000Y-116128111D01*
X121654369Y-116108933D01*
X121654370Y-116039064D01*
X121692145Y-115980286D01*
X121755701Y-115951262D01*
X121773347Y-115950000D01*
X122644040Y-115950000D01*
X122583588Y-115711283D01*
X122483732Y-115483632D01*
X122347767Y-115275521D01*
X122179407Y-115092635D01*
X122179397Y-115092626D01*
X121983237Y-114939948D01*
X121983228Y-114939942D01*
X121764614Y-114821635D01*
X121764603Y-114821630D01*
X121529492Y-114740916D01*
X121410000Y-114720976D01*
X121409999Y-114720976D01*
X121409999Y-115587698D01*
X121390314Y-115654738D01*
X121337510Y-115700492D01*
X121268353Y-115710436D01*
X121195764Y-115700000D01*
X121195763Y-115700000D01*
X121124237Y-115700000D01*
X121124233Y-115700000D01*
X121051645Y-115710436D01*
X120982487Y-115700492D01*
X120929684Y-115654736D01*
X120910000Y-115587698D01*
X120910000Y-114720976D01*
X120909999Y-114720976D01*
X120790507Y-114740916D01*
X120555396Y-114821630D01*
X120555385Y-114821635D01*
X120336771Y-114939942D01*
X120336762Y-114939948D01*
X120140602Y-115092626D01*
X120140592Y-115092635D01*
X119972232Y-115275521D01*
X119836267Y-115483632D01*
X119736411Y-115711283D01*
X119675960Y-115950000D01*
X120546653Y-115950000D01*
X120613692Y-115969685D01*
X120659447Y-116022489D01*
X120669391Y-116091647D01*
X120665631Y-116108933D01*
X120660000Y-116128111D01*
X120660000Y-116271888D01*
X120665631Y-116291067D01*
X120665630Y-116360936D01*
X120627855Y-116419714D01*
X120564299Y-116448738D01*
X120546653Y-116450000D01*
X119675960Y-116450000D01*
X113698716Y-116450000D01*
X113724040Y-116350000D01*
X112853347Y-116350000D01*
X112786308Y-116330315D01*
X112740553Y-116277511D01*
X112730609Y-116208353D01*
X112734369Y-116191067D01*
X112740000Y-116171888D01*
X112740000Y-116028111D01*
X112734369Y-116008933D01*
X112734370Y-115939064D01*
X112772145Y-115880286D01*
X112835701Y-115851262D01*
X112853347Y-115850000D01*
X113724040Y-115850000D01*
X113663588Y-115611283D01*
X113563732Y-115383632D01*
X113427767Y-115175521D01*
X113259407Y-114992635D01*
X113259397Y-114992626D01*
X113063237Y-114839948D01*
X113063228Y-114839942D01*
X112844614Y-114721635D01*
X112844603Y-114721630D01*
X112609492Y-114640916D01*
X112490000Y-114620976D01*
X112490000Y-115487698D01*
X112470315Y-115554737D01*
X112417511Y-115600492D01*
X112348355Y-115610436D01*
X112275766Y-115600000D01*
X112275763Y-115600000D01*
X112204237Y-115600000D01*
X112204233Y-115600000D01*
X112131645Y-115610436D01*
X112062487Y-115600492D01*
X112009684Y-115554736D01*
X111990000Y-115487698D01*
X111990000Y-114620976D01*
X111989999Y-114620976D01*
X111870507Y-114640916D01*
X111635396Y-114721630D01*
X111635385Y-114721635D01*
X111416771Y-114839942D01*
X111416762Y-114839948D01*
X111220602Y-114992626D01*
X111220592Y-114992635D01*
X111052232Y-115175521D01*
X110916267Y-115383632D01*
X110816411Y-115611283D01*
X110755960Y-115850000D01*
X111626653Y-115850000D01*
X111693692Y-115869685D01*
X111739447Y-115922489D01*
X111749391Y-115991647D01*
X111745631Y-116008933D01*
X111740000Y-116028111D01*
X111740000Y-116171888D01*
X111745631Y-116191067D01*
X111745630Y-116260936D01*
X111707855Y-116319714D01*
X111644299Y-116348738D01*
X111626653Y-116350000D01*
X110755960Y-116350000D01*
X108660500Y-116350000D01*
X108660499Y-115052128D01*
X108654091Y-114992517D01*
X108641094Y-114957671D01*
X108603797Y-114857671D01*
X108603793Y-114857664D01*
X108517547Y-114742455D01*
X108517544Y-114742452D01*
X108402335Y-114656206D01*
X108402328Y-114656202D01*
X108267482Y-114605908D01*
X108267483Y-114605908D01*
X108207883Y-114599501D01*
X108207881Y-114599500D01*
X108207873Y-114599500D01*
X108207864Y-114599500D01*
X106112129Y-114599500D01*
X106112123Y-114599501D01*
X106052516Y-114605908D01*
X105917671Y-114656202D01*
X105917664Y-114656206D01*
X105802455Y-114742452D01*
X105802452Y-114742455D01*
X105716206Y-114857664D01*
X105716202Y-114857671D01*
X105665908Y-114992517D01*
X105659501Y-115052116D01*
X105659501Y-115052123D01*
X105659500Y-115052135D01*
X105659500Y-117147870D01*
X76700500Y-117147870D01*
X76700500Y-108800005D01*
X103394357Y-108800005D01*
X103414890Y-109047812D01*
X103414892Y-109047824D01*
X103475936Y-109288881D01*
X103575826Y-109516606D01*
X103711833Y-109724782D01*
X103711836Y-109724785D01*
X103880256Y-109907738D01*
X104076491Y-110060474D01*
X104076493Y-110060475D01*
X104294332Y-110178364D01*
X104295190Y-110178828D01*
X104483136Y-110243350D01*
X104528964Y-110259083D01*
X104530386Y-110259571D01*
X104775665Y-110300500D01*
X105024335Y-110300500D01*
X105269614Y-110259571D01*
X105504810Y-110178828D01*
X105723509Y-110060474D01*
X105919744Y-109907738D01*
X105974880Y-109847844D01*
X110900000Y-109847844D01*
X110906401Y-109907372D01*
X110906403Y-109907379D01*
X110956645Y-110042086D01*
X110956649Y-110042093D01*
X111042809Y-110157187D01*
X111042812Y-110157190D01*
X111157906Y-110243350D01*
X111157913Y-110243354D01*
X111292620Y-110293596D01*
X111292627Y-110293598D01*
X111352155Y-110299999D01*
X111352172Y-110300000D01*
X112149999Y-110300000D01*
X112149999Y-109566753D01*
X112169683Y-109499714D01*
X112222487Y-109453959D01*
X112291646Y-109444015D01*
X112304823Y-109446646D01*
X112317886Y-109450000D01*
X112317890Y-109450000D01*
X112440892Y-109450000D01*
X112440894Y-109450000D01*
X112440899Y-109449999D01*
X112440903Y-109449999D01*
X112488270Y-109444015D01*
X112510457Y-109441212D01*
X112579435Y-109452338D01*
X112631447Y-109498991D01*
X112649999Y-109564234D01*
X112649999Y-110299999D01*
X112650001Y-110300000D01*
X113447828Y-110300000D01*
X113447844Y-110299999D01*
X113507372Y-110293598D01*
X113507379Y-110293596D01*
X113642086Y-110243354D01*
X113642093Y-110243350D01*
X113757187Y-110157190D01*
X113757190Y-110157187D01*
X113843350Y-110042093D01*
X113843354Y-110042086D01*
X113893596Y-109907379D01*
X113893598Y-109907372D01*
X113899999Y-109847844D01*
X113900000Y-109847827D01*
X113900000Y-109050000D01*
X113163921Y-109050000D01*
X113096882Y-109030315D01*
X113051127Y-108977511D01*
X113041183Y-108908353D01*
X113042117Y-108902766D01*
X113042659Y-108899919D01*
X113053873Y-108841138D01*
X113051285Y-108800005D01*
X119644858Y-108800005D01*
X119665385Y-109047729D01*
X119665387Y-109047738D01*
X119726412Y-109288717D01*
X119826266Y-109516364D01*
X119926564Y-109669882D01*
X120432332Y-109164114D01*
X120493655Y-109130629D01*
X120563346Y-109135613D01*
X120619280Y-109177484D01*
X120624709Y-109185352D01*
X120645187Y-109217620D01*
X120645188Y-109217621D01*
X120764902Y-109330039D01*
X120768273Y-109332489D01*
X120770274Y-109335084D01*
X120770590Y-109335381D01*
X120770542Y-109335431D01*
X120810937Y-109387821D01*
X120816913Y-109457435D01*
X120784305Y-109519228D01*
X120783065Y-109520486D01*
X120279942Y-110023609D01*
X120326768Y-110060055D01*
X120326770Y-110060056D01*
X120545385Y-110178364D01*
X120545396Y-110178369D01*
X120780506Y-110259083D01*
X121025707Y-110300000D01*
X121274293Y-110300000D01*
X121519493Y-110259083D01*
X121754603Y-110178369D01*
X121754614Y-110178364D01*
X121973228Y-110060057D01*
X121973231Y-110060055D01*
X122020056Y-110023609D01*
X121844317Y-109847870D01*
X127149500Y-109847870D01*
X127149501Y-109847876D01*
X127155908Y-109907483D01*
X127206202Y-110042328D01*
X127206206Y-110042335D01*
X127292452Y-110157544D01*
X127292455Y-110157547D01*
X127407664Y-110243793D01*
X127407671Y-110243797D01*
X127542517Y-110294091D01*
X127542516Y-110294091D01*
X127549444Y-110294835D01*
X127602127Y-110300500D01*
X129697872Y-110300499D01*
X129757483Y-110294091D01*
X129892331Y-110243796D01*
X130007546Y-110157546D01*
X130093796Y-110042331D01*
X130144091Y-109907483D01*
X130150500Y-109847873D01*
X130150499Y-107752128D01*
X130144091Y-107692517D01*
X130100778Y-107576390D01*
X130093797Y-107557671D01*
X130093793Y-107557664D01*
X130007547Y-107442455D01*
X130007544Y-107442452D01*
X129892335Y-107356206D01*
X129892328Y-107356202D01*
X129757482Y-107305908D01*
X129757483Y-107305908D01*
X129697883Y-107299501D01*
X129697881Y-107299500D01*
X129697873Y-107299500D01*
X129697864Y-107299500D01*
X127602129Y-107299500D01*
X127602123Y-107299501D01*
X127542516Y-107305908D01*
X127407671Y-107356202D01*
X127407664Y-107356206D01*
X127292455Y-107442452D01*
X127292452Y-107442455D01*
X127206206Y-107557664D01*
X127206202Y-107557671D01*
X127155908Y-107692517D01*
X127149501Y-107752116D01*
X127149501Y-107752123D01*
X127149500Y-107752135D01*
X127149500Y-109847870D01*
X121844317Y-109847870D01*
X121513234Y-109516787D01*
X121479749Y-109455464D01*
X121484733Y-109385772D01*
X121526605Y-109329839D01*
X121527953Y-109328844D01*
X121598492Y-109277595D01*
X121684871Y-109173180D01*
X121742768Y-109134074D01*
X121812620Y-109132478D01*
X121868094Y-109164541D01*
X122373434Y-109669882D01*
X122473731Y-109516369D01*
X122573587Y-109288717D01*
X122634612Y-109047738D01*
X122634614Y-109047729D01*
X122655141Y-108800005D01*
X122655141Y-108799994D01*
X122634614Y-108552270D01*
X122634612Y-108552261D01*
X122573587Y-108311282D01*
X122473731Y-108083630D01*
X122373434Y-107930116D01*
X121867667Y-108435884D01*
X121806344Y-108469369D01*
X121736652Y-108464385D01*
X121680719Y-108422513D01*
X121675290Y-108414646D01*
X121673771Y-108412252D01*
X121654814Y-108382381D01*
X121590942Y-108322402D01*
X121535097Y-108269960D01*
X121531732Y-108267515D01*
X121529731Y-108264920D01*
X121529410Y-108264619D01*
X121529458Y-108264567D01*
X121489064Y-108212187D01*
X121483082Y-108142574D01*
X121515685Y-108080778D01*
X121516932Y-108079513D01*
X122020056Y-107576389D01*
X121973229Y-107539943D01*
X121754614Y-107421635D01*
X121754603Y-107421630D01*
X121519493Y-107340916D01*
X121274293Y-107300000D01*
X121025707Y-107300000D01*
X120780506Y-107340916D01*
X120545396Y-107421630D01*
X120545390Y-107421632D01*
X120326761Y-107539949D01*
X120279942Y-107576388D01*
X120279942Y-107576390D01*
X120786765Y-108083212D01*
X120820250Y-108144535D01*
X120815266Y-108214226D01*
X120773395Y-108270160D01*
X120771970Y-108271210D01*
X120701510Y-108322402D01*
X120701508Y-108322405D01*
X120615130Y-108426818D01*
X120557230Y-108465925D01*
X120487378Y-108467521D01*
X120431905Y-108435458D01*
X119926564Y-107930116D01*
X119826267Y-108083632D01*
X119726412Y-108311282D01*
X119665387Y-108552261D01*
X119665385Y-108552270D01*
X119644858Y-108799994D01*
X119644858Y-108800005D01*
X113051285Y-108800005D01*
X113043847Y-108681784D01*
X113059283Y-108613643D01*
X113109109Y-108564663D01*
X113167602Y-108550000D01*
X113900000Y-108550000D01*
X113900000Y-107752172D01*
X113899999Y-107752155D01*
X113893598Y-107692627D01*
X113893596Y-107692620D01*
X113843354Y-107557913D01*
X113843350Y-107557906D01*
X113757190Y-107442812D01*
X113757187Y-107442809D01*
X113642093Y-107356649D01*
X113642086Y-107356645D01*
X113507379Y-107306403D01*
X113507372Y-107306401D01*
X113447844Y-107300000D01*
X112650000Y-107300000D01*
X112650000Y-108033246D01*
X112630315Y-108100285D01*
X112577511Y-108146040D01*
X112508353Y-108155984D01*
X112495165Y-108153351D01*
X112482115Y-108150000D01*
X112482114Y-108150000D01*
X112359106Y-108150000D01*
X112359094Y-108150000D01*
X112289541Y-108158787D01*
X112220563Y-108147660D01*
X112168551Y-108101006D01*
X112150000Y-108035765D01*
X112150000Y-107300000D01*
X111352155Y-107300000D01*
X111292627Y-107306401D01*
X111292620Y-107306403D01*
X111157913Y-107356645D01*
X111157906Y-107356649D01*
X111042812Y-107442809D01*
X111042809Y-107442812D01*
X110956649Y-107557906D01*
X110956645Y-107557913D01*
X110906403Y-107692620D01*
X110906401Y-107692627D01*
X110900000Y-107752155D01*
X110900000Y-108550000D01*
X111636079Y-108550000D01*
X111703118Y-108569685D01*
X111748873Y-108622489D01*
X111758817Y-108691647D01*
X111757883Y-108697234D01*
X111746127Y-108758862D01*
X111755532Y-108908353D01*
X111756153Y-108918214D01*
X111740717Y-108986357D01*
X111690891Y-109035337D01*
X111632398Y-109050000D01*
X110900000Y-109050000D01*
X110900000Y-109847844D01*
X105974880Y-109847844D01*
X106088164Y-109724785D01*
X106224173Y-109516607D01*
X106324063Y-109288881D01*
X106385108Y-109047821D01*
X106385116Y-109047729D01*
X106405643Y-108800005D01*
X106405643Y-108799994D01*
X106385109Y-108552187D01*
X106385107Y-108552175D01*
X106324063Y-108311118D01*
X106224173Y-108083393D01*
X106088166Y-107875217D01*
X106066557Y-107851744D01*
X105919744Y-107692262D01*
X105723509Y-107539526D01*
X105723507Y-107539525D01*
X105723506Y-107539524D01*
X105504811Y-107421172D01*
X105504802Y-107421169D01*
X105269616Y-107340429D01*
X105024335Y-107299500D01*
X104775665Y-107299500D01*
X104530383Y-107340429D01*
X104295197Y-107421169D01*
X104295188Y-107421172D01*
X104076493Y-107539524D01*
X104029129Y-107576389D01*
X103880256Y-107692262D01*
X103879920Y-107692627D01*
X103711833Y-107875217D01*
X103575826Y-108083393D01*
X103475936Y-108311118D01*
X103414892Y-108552175D01*
X103414890Y-108552187D01*
X103394357Y-108799994D01*
X103394357Y-108800005D01*
X76700500Y-108800005D01*
X76700500Y-82543082D01*
X83299500Y-82543082D01*
X83309377Y-82611784D01*
X83309850Y-82616184D01*
X83314804Y-82685430D01*
X83314804Y-82685433D01*
X83329560Y-82753259D01*
X83330346Y-82757616D01*
X83340224Y-82826318D01*
X83340227Y-82826331D01*
X83359778Y-82892915D01*
X83360873Y-82897205D01*
X83375631Y-82965048D01*
X83399891Y-83030092D01*
X83401289Y-83034292D01*
X83420845Y-83100891D01*
X83449678Y-83164029D01*
X83451372Y-83168117D01*
X83475633Y-83233160D01*
X83475633Y-83233161D01*
X83508910Y-83294104D01*
X83510877Y-83298034D01*
X83516853Y-83311119D01*
X83539715Y-83361182D01*
X83539720Y-83361192D01*
X83577250Y-83419589D01*
X83579509Y-83423396D01*
X83612770Y-83484309D01*
X83612771Y-83484310D01*
X83612774Y-83484315D01*
X83654366Y-83539875D01*
X83656883Y-83543499D01*
X83694426Y-83601917D01*
X83694427Y-83601918D01*
X83694430Y-83601923D01*
X83739884Y-83654378D01*
X83742661Y-83657825D01*
X83784259Y-83713393D01*
X83784269Y-83713404D01*
X83809590Y-83738724D01*
X83834912Y-83764046D01*
X89587472Y-89516606D01*
X95184261Y-95113395D01*
X95386594Y-95315729D01*
X95386599Y-95315733D01*
X95386605Y-95315739D01*
X95442174Y-95357337D01*
X95445607Y-95360103D01*
X95498083Y-95405574D01*
X95556506Y-95443120D01*
X95560114Y-95445626D01*
X95615685Y-95487226D01*
X95676610Y-95520494D01*
X95680388Y-95522735D01*
X95738814Y-95560283D01*
X95793876Y-95585428D01*
X95801956Y-95589118D01*
X95805916Y-95591100D01*
X95866839Y-95624367D01*
X95931905Y-95648634D01*
X95935953Y-95650312D01*
X95999112Y-95679156D01*
X96065729Y-95698716D01*
X96069905Y-95700107D01*
X96080621Y-95704103D01*
X96134954Y-95724369D01*
X96202805Y-95739128D01*
X96207044Y-95740209D01*
X96273678Y-95759776D01*
X96273681Y-95759776D01*
X96273683Y-95759777D01*
X96296174Y-95763010D01*
X96342399Y-95769655D01*
X96346743Y-95770440D01*
X96414572Y-95785196D01*
X96483815Y-95790147D01*
X96488193Y-95790617D01*
X96556921Y-95800500D01*
X96556924Y-95800500D01*
X104971448Y-95800500D01*
X105185428Y-95785196D01*
X105253261Y-95770440D01*
X105465037Y-95724371D01*
X105465037Y-95724370D01*
X105465046Y-95724369D01*
X105733161Y-95624367D01*
X105984315Y-95487226D01*
X106213395Y-95315739D01*
X106415739Y-95113395D01*
X106587226Y-94884315D01*
X106724367Y-94633161D01*
X106824369Y-94365046D01*
X106856439Y-94217621D01*
X106885195Y-94085433D01*
X106885195Y-94085432D01*
X106885196Y-94085428D01*
X106905610Y-93800005D01*
X110894357Y-93800005D01*
X110914890Y-94047812D01*
X110914892Y-94047824D01*
X110975936Y-94288881D01*
X111075826Y-94516606D01*
X111211833Y-94724782D01*
X111211836Y-94724785D01*
X111380256Y-94907738D01*
X111576491Y-95060474D01*
X111576493Y-95060475D01*
X111794332Y-95178364D01*
X111795190Y-95178828D01*
X112014141Y-95253994D01*
X112028964Y-95259083D01*
X112030386Y-95259571D01*
X112275665Y-95300500D01*
X112524335Y-95300500D01*
X112769614Y-95259571D01*
X113004810Y-95178828D01*
X113223509Y-95060474D01*
X113419744Y-94907738D01*
X113588164Y-94724785D01*
X113724173Y-94516607D01*
X113824063Y-94288881D01*
X113885108Y-94047821D01*
X113888867Y-94002457D01*
X113905643Y-93800005D01*
X113905643Y-93799994D01*
X113885109Y-93552187D01*
X113885107Y-93552175D01*
X113824063Y-93311118D01*
X113724173Y-93083393D01*
X113588166Y-92875217D01*
X113566557Y-92851744D01*
X113419744Y-92692262D01*
X113223509Y-92539526D01*
X113223507Y-92539525D01*
X113223506Y-92539524D01*
X113004811Y-92421172D01*
X113004802Y-92421169D01*
X112769616Y-92340429D01*
X112524335Y-92299500D01*
X112275665Y-92299500D01*
X112030383Y-92340429D01*
X111795197Y-92421169D01*
X111795188Y-92421172D01*
X111576493Y-92539524D01*
X111380257Y-92692261D01*
X111211833Y-92875217D01*
X111075826Y-93083393D01*
X110975936Y-93311118D01*
X110914892Y-93552175D01*
X110914890Y-93552187D01*
X110894357Y-93799994D01*
X110894357Y-93800005D01*
X106905610Y-93800005D01*
X106905610Y-93800000D01*
X106885196Y-93514572D01*
X106866106Y-93426818D01*
X106824371Y-93234962D01*
X106824370Y-93234960D01*
X106824369Y-93234954D01*
X106724367Y-92966839D01*
X106674337Y-92875217D01*
X106587229Y-92715690D01*
X106587224Y-92715682D01*
X106415745Y-92486612D01*
X106415729Y-92486594D01*
X106213405Y-92284270D01*
X106213387Y-92284254D01*
X105984317Y-92112775D01*
X105984309Y-92112770D01*
X105733166Y-91975635D01*
X105733167Y-91975635D01*
X105625914Y-91935632D01*
X105465046Y-91875631D01*
X105465043Y-91875630D01*
X105465037Y-91875628D01*
X105185433Y-91814804D01*
X104971448Y-91799500D01*
X97579996Y-91799500D01*
X97512957Y-91779815D01*
X97492315Y-91763181D01*
X87336819Y-81607685D01*
X87303334Y-81546362D01*
X87300500Y-81520004D01*
X87300500Y-79972007D01*
X88561611Y-79972007D01*
X88581144Y-80270025D01*
X88581145Y-80270035D01*
X88581146Y-80270042D01*
X88581148Y-80270052D01*
X88639414Y-80562977D01*
X88639419Y-80562997D01*
X88735420Y-80845807D01*
X88735424Y-80845817D01*
X88867523Y-81113687D01*
X88867530Y-81113700D01*
X89033467Y-81362040D01*
X89230399Y-81586600D01*
X89347849Y-81689600D01*
X89454961Y-81783534D01*
X89703305Y-81949473D01*
X89835244Y-82014537D01*
X89971180Y-82081574D01*
X89971183Y-82081575D01*
X89971185Y-82081576D01*
X90177339Y-82151555D01*
X90225158Y-82181292D01*
X98157261Y-90113395D01*
X98359594Y-90315729D01*
X98359600Y-90315734D01*
X98359605Y-90315739D01*
X98415186Y-90357346D01*
X98418611Y-90360107D01*
X98471082Y-90405573D01*
X98529482Y-90443104D01*
X98533107Y-90445621D01*
X98588682Y-90487224D01*
X98588690Y-90487229D01*
X98649603Y-90520490D01*
X98653405Y-90522745D01*
X98653407Y-90522747D01*
X98653411Y-90522749D01*
X98711808Y-90560279D01*
X98711809Y-90560280D01*
X98711813Y-90560282D01*
X98774976Y-90589127D01*
X98778885Y-90591083D01*
X98832393Y-90620301D01*
X98839833Y-90624364D01*
X98839839Y-90624367D01*
X98904900Y-90648632D01*
X98908945Y-90650308D01*
X98972111Y-90679156D01*
X98972115Y-90679157D01*
X98972117Y-90679158D01*
X98986985Y-90683523D01*
X99038721Y-90698714D01*
X99042887Y-90700100D01*
X99107954Y-90724369D01*
X99107957Y-90724369D01*
X99107961Y-90724371D01*
X99142199Y-90731818D01*
X99175805Y-90739129D01*
X99180069Y-90740217D01*
X99246677Y-90759775D01*
X99315392Y-90769654D01*
X99319710Y-90770433D01*
X99387572Y-90785196D01*
X99456826Y-90790148D01*
X99461187Y-90790617D01*
X99529921Y-90800500D01*
X99529924Y-90800500D01*
X104971448Y-90800500D01*
X105185428Y-90785196D01*
X105253275Y-90770437D01*
X105465037Y-90724371D01*
X105465037Y-90724370D01*
X105465046Y-90724369D01*
X105733161Y-90624367D01*
X105984315Y-90487226D01*
X106213395Y-90315739D01*
X106415739Y-90113395D01*
X106587226Y-89884315D01*
X106724367Y-89633161D01*
X106824369Y-89365046D01*
X106885196Y-89085428D01*
X106905610Y-88800000D01*
X106885196Y-88514572D01*
X106860771Y-88402294D01*
X106824371Y-88234962D01*
X106824370Y-88234960D01*
X106824369Y-88234954D01*
X106724367Y-87966839D01*
X106686089Y-87896739D01*
X106587229Y-87715690D01*
X106587224Y-87715682D01*
X106415745Y-87486612D01*
X106415729Y-87486594D01*
X106213405Y-87284270D01*
X106213387Y-87284254D01*
X105984317Y-87112775D01*
X105984309Y-87112770D01*
X105733166Y-86975635D01*
X105733167Y-86975635D01*
X105625914Y-86935632D01*
X105465046Y-86875631D01*
X105465043Y-86875630D01*
X105465037Y-86875628D01*
X105185433Y-86814804D01*
X104971448Y-86799500D01*
X100552996Y-86799500D01*
X100485957Y-86779815D01*
X100465315Y-86763181D01*
X97502139Y-83800005D01*
X103394357Y-83800005D01*
X103414890Y-84047812D01*
X103414892Y-84047824D01*
X103475936Y-84288881D01*
X103575826Y-84516606D01*
X103711833Y-84724782D01*
X103711836Y-84724785D01*
X103880256Y-84907738D01*
X104076491Y-85060474D01*
X104295190Y-85178828D01*
X104530386Y-85259571D01*
X104775665Y-85300500D01*
X105024335Y-85300500D01*
X105269614Y-85259571D01*
X105504810Y-85178828D01*
X105723509Y-85060474D01*
X105919744Y-84907738D01*
X106088164Y-84724785D01*
X106224173Y-84516607D01*
X106324063Y-84288881D01*
X106385108Y-84047821D01*
X106393787Y-83943079D01*
X106393787Y-83943077D01*
X110399500Y-83943077D01*
X110440224Y-84226320D01*
X110440225Y-84226324D01*
X110520840Y-84500879D01*
X110639717Y-84761186D01*
X110639720Y-84761191D01*
X110794425Y-85001916D01*
X110934909Y-85164043D01*
X112910919Y-87140053D01*
X112944404Y-87201376D01*
X112939420Y-87271068D01*
X112897548Y-87327001D01*
X112832084Y-87351418D01*
X112782976Y-87345016D01*
X112769613Y-87340428D01*
X112524335Y-87299500D01*
X112275665Y-87299500D01*
X112030383Y-87340429D01*
X111795197Y-87421169D01*
X111795188Y-87421172D01*
X111576493Y-87539524D01*
X111380257Y-87692261D01*
X111211833Y-87875217D01*
X111075826Y-88083393D01*
X110975936Y-88311118D01*
X110914892Y-88552175D01*
X110914890Y-88552187D01*
X110894357Y-88799994D01*
X110894357Y-88800005D01*
X110914890Y-89047812D01*
X110914892Y-89047824D01*
X110975936Y-89288881D01*
X111075826Y-89516606D01*
X111211833Y-89724782D01*
X111211836Y-89724785D01*
X111380256Y-89907738D01*
X111576491Y-90060474D01*
X111795190Y-90178828D01*
X112030386Y-90259571D01*
X112275665Y-90300500D01*
X112524335Y-90300500D01*
X112769614Y-90259571D01*
X113004810Y-90178828D01*
X113223509Y-90060474D01*
X113419744Y-89907738D01*
X113588164Y-89724785D01*
X113724173Y-89516607D01*
X113824063Y-89288881D01*
X113885108Y-89047821D01*
X113892409Y-88959714D01*
X113905643Y-88800005D01*
X113905643Y-88799994D01*
X113885109Y-88552187D01*
X113885108Y-88552183D01*
X113885108Y-88552179D01*
X113861334Y-88458300D01*
X113847152Y-88402294D01*
X113849776Y-88332473D01*
X113889732Y-88275156D01*
X113954333Y-88248539D01*
X114023069Y-88261073D01*
X114055038Y-88284172D01*
X114813181Y-89042315D01*
X114846666Y-89103638D01*
X114849500Y-89129996D01*
X114849500Y-95443082D01*
X114859377Y-95511784D01*
X114859850Y-95516184D01*
X114864804Y-95585430D01*
X114864804Y-95585433D01*
X114873275Y-95624369D01*
X114878551Y-95648624D01*
X114879560Y-95653259D01*
X114880346Y-95657616D01*
X114890224Y-95726318D01*
X114890227Y-95726331D01*
X114909778Y-95792915D01*
X114910873Y-95797205D01*
X114925631Y-95865048D01*
X114949891Y-95930092D01*
X114951289Y-95934292D01*
X114970845Y-96000891D01*
X114999678Y-96064029D01*
X115001372Y-96068117D01*
X115025633Y-96133160D01*
X115025633Y-96133161D01*
X115058910Y-96194104D01*
X115060883Y-96198046D01*
X115089715Y-96261182D01*
X115089720Y-96261192D01*
X115127250Y-96319589D01*
X115129509Y-96323396D01*
X115162770Y-96384309D01*
X115162771Y-96384310D01*
X115162774Y-96384315D01*
X115204366Y-96439875D01*
X115206883Y-96443499D01*
X115244426Y-96501917D01*
X115244427Y-96501918D01*
X115244430Y-96501923D01*
X115289884Y-96554378D01*
X115292661Y-96557825D01*
X115334259Y-96613393D01*
X115334269Y-96613404D01*
X115359590Y-96638724D01*
X115384912Y-96664046D01*
X119535954Y-100815089D01*
X119535961Y-100815095D01*
X119561247Y-100840381D01*
X119586596Y-100865731D01*
X119586612Y-100865745D01*
X119642171Y-100907335D01*
X119645614Y-100910109D01*
X119698083Y-100955574D01*
X119756500Y-100993116D01*
X119760096Y-100995613D01*
X119815685Y-101037226D01*
X119876638Y-101070509D01*
X119880394Y-101072737D01*
X119929028Y-101103993D01*
X119938812Y-101110281D01*
X119938818Y-101110284D01*
X120001959Y-101139119D01*
X120005901Y-101141092D01*
X120066839Y-101174367D01*
X120066843Y-101174368D01*
X120066844Y-101174369D01*
X120066846Y-101174370D01*
X120131881Y-101198627D01*
X120135970Y-101200321D01*
X120199114Y-101229157D01*
X120221347Y-101235684D01*
X120265718Y-101248713D01*
X120269884Y-101250099D01*
X120334954Y-101274369D01*
X120390166Y-101286379D01*
X120402799Y-101289127D01*
X120407078Y-101290219D01*
X120473678Y-101309775D01*
X120542389Y-101319653D01*
X120546733Y-101320438D01*
X120614572Y-101335196D01*
X120683821Y-101340148D01*
X120688197Y-101340618D01*
X120756921Y-101350500D01*
X120756923Y-101350500D01*
X133293076Y-101350500D01*
X133293079Y-101350500D01*
X133361804Y-101340618D01*
X133366177Y-101340148D01*
X133435428Y-101335196D01*
X133503297Y-101320431D01*
X133507604Y-101319654D01*
X133576322Y-101309775D01*
X133642907Y-101290222D01*
X133647195Y-101289127D01*
X133715046Y-101274369D01*
X133780106Y-101250102D01*
X133784272Y-101248715D01*
X133850888Y-101229156D01*
X133914057Y-101200306D01*
X133918083Y-101198639D01*
X133983161Y-101174367D01*
X134044093Y-101141094D01*
X134048036Y-101139121D01*
X134111187Y-101110282D01*
X134169615Y-101072731D01*
X134173380Y-101070498D01*
X134234315Y-101037226D01*
X134289885Y-100995626D01*
X134293509Y-100993109D01*
X134351917Y-100955574D01*
X134404388Y-100910106D01*
X134407823Y-100907339D01*
X134407828Y-100907335D01*
X134463395Y-100865739D01*
X134665739Y-100663395D01*
X143519842Y-91809290D01*
X143567659Y-91779555D01*
X143773815Y-91709576D01*
X144041695Y-91577473D01*
X144290039Y-91411534D01*
X144514600Y-91214600D01*
X144711534Y-90990039D01*
X144877473Y-90741695D01*
X145009576Y-90473815D01*
X145048173Y-90360114D01*
X145105580Y-90190997D01*
X145105580Y-90190996D01*
X145105584Y-90190985D01*
X145163854Y-89898042D01*
X145175210Y-89724782D01*
X145183389Y-89600007D01*
X145183389Y-89599992D01*
X145163855Y-89301974D01*
X145163854Y-89301958D01*
X145105584Y-89009015D01*
X145009576Y-88726185D01*
X144877473Y-88458306D01*
X144711534Y-88209961D01*
X144668384Y-88160758D01*
X144514600Y-87985399D01*
X144290040Y-87788467D01*
X144041700Y-87622530D01*
X144041697Y-87622528D01*
X144041695Y-87622527D01*
X144027851Y-87615700D01*
X143773817Y-87490424D01*
X143773807Y-87490420D01*
X143490997Y-87394419D01*
X143490977Y-87394414D01*
X143198052Y-87336148D01*
X143198042Y-87336146D01*
X143198035Y-87336145D01*
X143198025Y-87336144D01*
X142900007Y-87316611D01*
X142899993Y-87316611D01*
X142601974Y-87336144D01*
X142601962Y-87336145D01*
X142601958Y-87336146D01*
X142601950Y-87336147D01*
X142601947Y-87336148D01*
X142309022Y-87394414D01*
X142309007Y-87394418D01*
X142026189Y-87490422D01*
X142026168Y-87490431D01*
X141758313Y-87622523D01*
X141758300Y-87622530D01*
X141509959Y-87788467D01*
X141285399Y-87985399D01*
X141088467Y-88209959D01*
X140922530Y-88458300D01*
X140922523Y-88458313D01*
X140790425Y-88726181D01*
X140720444Y-88932336D01*
X140690706Y-88980158D01*
X132357685Y-97313181D01*
X132296362Y-97346666D01*
X132270004Y-97349500D01*
X121779997Y-97349500D01*
X121712958Y-97329815D01*
X121692316Y-97313181D01*
X118886819Y-94507684D01*
X118853334Y-94446361D01*
X118850500Y-94420003D01*
X118850500Y-93800005D01*
X119644858Y-93800005D01*
X119665385Y-94047729D01*
X119665387Y-94047738D01*
X119726412Y-94288717D01*
X119826266Y-94516364D01*
X119926564Y-94669882D01*
X120432332Y-94164114D01*
X120493655Y-94130629D01*
X120563346Y-94135613D01*
X120619280Y-94177484D01*
X120624709Y-94185352D01*
X120645187Y-94217620D01*
X120645188Y-94217621D01*
X120764902Y-94330039D01*
X120768273Y-94332489D01*
X120770274Y-94335084D01*
X120770590Y-94335381D01*
X120770542Y-94335431D01*
X120810937Y-94387821D01*
X120816913Y-94457435D01*
X120784305Y-94519228D01*
X120783065Y-94520486D01*
X120279942Y-95023609D01*
X120326768Y-95060055D01*
X120326770Y-95060056D01*
X120545385Y-95178364D01*
X120545396Y-95178369D01*
X120780506Y-95259083D01*
X121025707Y-95300000D01*
X121274293Y-95300000D01*
X121519493Y-95259083D01*
X121754603Y-95178369D01*
X121754614Y-95178364D01*
X121973228Y-95060057D01*
X121973231Y-95060055D01*
X122020056Y-95023609D01*
X121513234Y-94516787D01*
X121479749Y-94455464D01*
X121484733Y-94385772D01*
X121526605Y-94329839D01*
X121527953Y-94328844D01*
X121598492Y-94277595D01*
X121684871Y-94173180D01*
X121742768Y-94134074D01*
X121812620Y-94132478D01*
X121868094Y-94164541D01*
X122373434Y-94669882D01*
X122473731Y-94516369D01*
X122573587Y-94288717D01*
X122634612Y-94047738D01*
X122634614Y-94047729D01*
X122655141Y-93800005D01*
X127144858Y-93800005D01*
X127165385Y-94047729D01*
X127165387Y-94047738D01*
X127226412Y-94288717D01*
X127326266Y-94516364D01*
X127426564Y-94669882D01*
X127932332Y-94164114D01*
X127993655Y-94130629D01*
X128063346Y-94135613D01*
X128119280Y-94177484D01*
X128124709Y-94185352D01*
X128145187Y-94217620D01*
X128145188Y-94217621D01*
X128264902Y-94330039D01*
X128268273Y-94332489D01*
X128270274Y-94335084D01*
X128270590Y-94335381D01*
X128270542Y-94335431D01*
X128310937Y-94387821D01*
X128316913Y-94457435D01*
X128284305Y-94519228D01*
X128283065Y-94520486D01*
X127779942Y-95023609D01*
X127826768Y-95060055D01*
X127826770Y-95060056D01*
X128045385Y-95178364D01*
X128045396Y-95178369D01*
X128280506Y-95259083D01*
X128525707Y-95300000D01*
X128774293Y-95300000D01*
X129019493Y-95259083D01*
X129254603Y-95178369D01*
X129254614Y-95178364D01*
X129473228Y-95060057D01*
X129473231Y-95060055D01*
X129520056Y-95023609D01*
X129013234Y-94516787D01*
X128979749Y-94455464D01*
X128984733Y-94385772D01*
X129026605Y-94329839D01*
X129027953Y-94328844D01*
X129098492Y-94277595D01*
X129184871Y-94173180D01*
X129242768Y-94134074D01*
X129312620Y-94132478D01*
X129368094Y-94164541D01*
X129873434Y-94669882D01*
X129973731Y-94516369D01*
X130073587Y-94288717D01*
X130134612Y-94047738D01*
X130134614Y-94047729D01*
X130155141Y-93800005D01*
X130155141Y-93799994D01*
X130134614Y-93552270D01*
X130134612Y-93552261D01*
X130073587Y-93311282D01*
X129973731Y-93083630D01*
X129873434Y-92930116D01*
X129367667Y-93435884D01*
X129306344Y-93469369D01*
X129236652Y-93464385D01*
X129180719Y-93422513D01*
X129175290Y-93414646D01*
X129173771Y-93412252D01*
X129154814Y-93382381D01*
X129090942Y-93322402D01*
X129035097Y-93269960D01*
X129031732Y-93267515D01*
X129029731Y-93264920D01*
X129029410Y-93264619D01*
X129029458Y-93264567D01*
X128989064Y-93212187D01*
X128983082Y-93142574D01*
X129015685Y-93080778D01*
X129016932Y-93079513D01*
X129520056Y-92576389D01*
X129473229Y-92539943D01*
X129254614Y-92421635D01*
X129254603Y-92421630D01*
X129019493Y-92340916D01*
X128774293Y-92300000D01*
X128525707Y-92300000D01*
X128280506Y-92340916D01*
X128045396Y-92421630D01*
X128045390Y-92421632D01*
X127826761Y-92539949D01*
X127779942Y-92576388D01*
X127779942Y-92576390D01*
X128286765Y-93083212D01*
X128320250Y-93144535D01*
X128315266Y-93214226D01*
X128273395Y-93270160D01*
X128271970Y-93271210D01*
X128201510Y-93322402D01*
X128201508Y-93322405D01*
X128115130Y-93426818D01*
X128057230Y-93465925D01*
X127987378Y-93467521D01*
X127931905Y-93435458D01*
X127426564Y-92930116D01*
X127326267Y-93083632D01*
X127226412Y-93311282D01*
X127165387Y-93552261D01*
X127165385Y-93552270D01*
X127144858Y-93799994D01*
X127144858Y-93800005D01*
X122655141Y-93800005D01*
X122655141Y-93799994D01*
X122634614Y-93552270D01*
X122634612Y-93552261D01*
X122573587Y-93311282D01*
X122473731Y-93083630D01*
X122373434Y-92930116D01*
X121867667Y-93435884D01*
X121806344Y-93469369D01*
X121736652Y-93464385D01*
X121680719Y-93422513D01*
X121675290Y-93414646D01*
X121673771Y-93412252D01*
X121654814Y-93382381D01*
X121590942Y-93322402D01*
X121535097Y-93269960D01*
X121531732Y-93267515D01*
X121529731Y-93264920D01*
X121529410Y-93264619D01*
X121529458Y-93264567D01*
X121489064Y-93212187D01*
X121483082Y-93142574D01*
X121515685Y-93080778D01*
X121516932Y-93079513D01*
X122020056Y-92576389D01*
X121973229Y-92539943D01*
X121754614Y-92421635D01*
X121754603Y-92421630D01*
X121519493Y-92340916D01*
X121274293Y-92300000D01*
X121025707Y-92300000D01*
X120780506Y-92340916D01*
X120545396Y-92421630D01*
X120545390Y-92421632D01*
X120326761Y-92539949D01*
X120279942Y-92576388D01*
X120279942Y-92576390D01*
X120786765Y-93083212D01*
X120820250Y-93144535D01*
X120815266Y-93214226D01*
X120773395Y-93270160D01*
X120771970Y-93271210D01*
X120701510Y-93322402D01*
X120701508Y-93322405D01*
X120615130Y-93426818D01*
X120557230Y-93465925D01*
X120487378Y-93467521D01*
X120431905Y-93435458D01*
X119926564Y-92930116D01*
X119826267Y-93083632D01*
X119726412Y-93311282D01*
X119665387Y-93552261D01*
X119665385Y-93552270D01*
X119644858Y-93799994D01*
X119644858Y-93800005D01*
X118850500Y-93800005D01*
X118850500Y-88800005D01*
X119644357Y-88800005D01*
X119664890Y-89047812D01*
X119664892Y-89047824D01*
X119725936Y-89288881D01*
X119825826Y-89516606D01*
X119961833Y-89724782D01*
X119961836Y-89724785D01*
X120130256Y-89907738D01*
X120326491Y-90060474D01*
X120545190Y-90178828D01*
X120780386Y-90259571D01*
X121025665Y-90300500D01*
X121274335Y-90300500D01*
X121519614Y-90259571D01*
X121754810Y-90178828D01*
X121973509Y-90060474D01*
X122169744Y-89907738D01*
X122338164Y-89724785D01*
X122474173Y-89516607D01*
X122574063Y-89288881D01*
X122635108Y-89047821D01*
X122642409Y-88959714D01*
X122655643Y-88800005D01*
X122655643Y-88800001D01*
X126644390Y-88800001D01*
X126664804Y-89085433D01*
X126725628Y-89365037D01*
X126725630Y-89365043D01*
X126725631Y-89365046D01*
X126813262Y-89599992D01*
X126825635Y-89633166D01*
X126962770Y-89884309D01*
X126962775Y-89884317D01*
X127134254Y-90113387D01*
X127134270Y-90113405D01*
X127336594Y-90315729D01*
X127336612Y-90315745D01*
X127565682Y-90487224D01*
X127565690Y-90487229D01*
X127816833Y-90624364D01*
X127816832Y-90624364D01*
X127816836Y-90624365D01*
X127816839Y-90624367D01*
X128084954Y-90724369D01*
X128084960Y-90724370D01*
X128084962Y-90724371D01*
X128364566Y-90785195D01*
X128364568Y-90785195D01*
X128364572Y-90785196D01*
X128578552Y-90800500D01*
X134318076Y-90800500D01*
X134318079Y-90800500D01*
X134386804Y-90790618D01*
X134391177Y-90790148D01*
X134460428Y-90785196D01*
X134528297Y-90770431D01*
X134532604Y-90769654D01*
X134601322Y-90759775D01*
X134662894Y-90741695D01*
X134667911Y-90740222D01*
X134672195Y-90739127D01*
X134740046Y-90724369D01*
X134805106Y-90700102D01*
X134809272Y-90698715D01*
X134875888Y-90679156D01*
X134939057Y-90650306D01*
X134943083Y-90648639D01*
X135008161Y-90624367D01*
X135069093Y-90591094D01*
X135073036Y-90589121D01*
X135073047Y-90589116D01*
X135136187Y-90560282D01*
X135194615Y-90522731D01*
X135198380Y-90520498D01*
X135259315Y-90487226D01*
X135314882Y-90445627D01*
X135318509Y-90443109D01*
X135376917Y-90405574D01*
X135429388Y-90360106D01*
X135432823Y-90357339D01*
X135432827Y-90357336D01*
X135488395Y-90315739D01*
X135690739Y-90113395D01*
X135690739Y-90113394D01*
X143519842Y-82284290D01*
X143567659Y-82254555D01*
X143773815Y-82184576D01*
X144041695Y-82052473D01*
X144290039Y-81886534D01*
X144514600Y-81689600D01*
X144711534Y-81465039D01*
X144877473Y-81216695D01*
X145009576Y-80948815D01*
X145105584Y-80665985D01*
X145163854Y-80373042D01*
X145167749Y-80313607D01*
X145183389Y-80075007D01*
X145183389Y-80074992D01*
X145163855Y-79776974D01*
X145163854Y-79776958D01*
X145105584Y-79484015D01*
X145009576Y-79201185D01*
X144877473Y-78933306D01*
X144711534Y-78684961D01*
X144621204Y-78581959D01*
X144514600Y-78460399D01*
X144290040Y-78263467D01*
X144041700Y-78097530D01*
X144041697Y-78097528D01*
X144041695Y-78097527D01*
X144041687Y-78097523D01*
X143773817Y-77965424D01*
X143773807Y-77965420D01*
X143490997Y-77869419D01*
X143490977Y-77869414D01*
X143198052Y-77811148D01*
X143198042Y-77811146D01*
X143198035Y-77811145D01*
X143198025Y-77811144D01*
X142900007Y-77791611D01*
X142899993Y-77791611D01*
X142601974Y-77811144D01*
X142601962Y-77811145D01*
X142601958Y-77811146D01*
X142601950Y-77811147D01*
X142601947Y-77811148D01*
X142309022Y-77869414D01*
X142309007Y-77869418D01*
X142026189Y-77965422D01*
X142026168Y-77965431D01*
X141758313Y-78097523D01*
X141758300Y-78097530D01*
X141509959Y-78263467D01*
X141285399Y-78460399D01*
X141088467Y-78684959D01*
X140922530Y-78933300D01*
X140922523Y-78933313D01*
X140790425Y-79201181D01*
X140720444Y-79407336D01*
X140690706Y-79455158D01*
X133382685Y-86763181D01*
X133321362Y-86796666D01*
X133295004Y-86799500D01*
X128578552Y-86799500D01*
X128364566Y-86814804D01*
X128084962Y-86875628D01*
X127816833Y-86975635D01*
X127565690Y-87112770D01*
X127565682Y-87112775D01*
X127336612Y-87284254D01*
X127336594Y-87284270D01*
X127134270Y-87486594D01*
X127134254Y-87486612D01*
X126962775Y-87715682D01*
X126962770Y-87715690D01*
X126825635Y-87966833D01*
X126725628Y-88234962D01*
X126664804Y-88514566D01*
X126644390Y-88799998D01*
X126644390Y-88800001D01*
X122655643Y-88800001D01*
X122655643Y-88799994D01*
X122635109Y-88552187D01*
X122635107Y-88552175D01*
X122574063Y-88311118D01*
X122474173Y-88083393D01*
X122338166Y-87875217D01*
X122290720Y-87823677D01*
X122169744Y-87692262D01*
X121973509Y-87539526D01*
X121973507Y-87539525D01*
X121973506Y-87539524D01*
X121754811Y-87421172D01*
X121754802Y-87421169D01*
X121519616Y-87340429D01*
X121274335Y-87299500D01*
X121025665Y-87299500D01*
X120780383Y-87340429D01*
X120545197Y-87421169D01*
X120545188Y-87421172D01*
X120326493Y-87539524D01*
X120130257Y-87692261D01*
X119961833Y-87875217D01*
X119825826Y-88083393D01*
X119725936Y-88311118D01*
X119664892Y-88552175D01*
X119664890Y-88552187D01*
X119644357Y-88799994D01*
X119644357Y-88800005D01*
X118850500Y-88800005D01*
X118850500Y-88106923D01*
X118847117Y-88083393D01*
X118840617Y-88038187D01*
X118840148Y-88033826D01*
X118835196Y-87964572D01*
X118820433Y-87896710D01*
X118819653Y-87892381D01*
X118809775Y-87823677D01*
X118790217Y-87757069D01*
X118789126Y-87752793D01*
X118774371Y-87684961D01*
X118774369Y-87684957D01*
X118774369Y-87684954D01*
X118750100Y-87619887D01*
X118748714Y-87615721D01*
X118729156Y-87549111D01*
X118700308Y-87485945D01*
X118698632Y-87481900D01*
X118674367Y-87416839D01*
X118641083Y-87355885D01*
X118639127Y-87351976D01*
X118610282Y-87288813D01*
X118607362Y-87284270D01*
X118572749Y-87230411D01*
X118570490Y-87226603D01*
X118537229Y-87165690D01*
X118537224Y-87165682D01*
X118495621Y-87110107D01*
X118493104Y-87106482D01*
X118455573Y-87048082D01*
X118410107Y-86995611D01*
X118407346Y-86992186D01*
X118365739Y-86936605D01*
X118365734Y-86936600D01*
X118365729Y-86936594D01*
X118145955Y-86716821D01*
X118145952Y-86716819D01*
X113764043Y-82334909D01*
X113601916Y-82194425D01*
X113361191Y-82039720D01*
X113361186Y-82039717D01*
X113100879Y-81920840D01*
X112826324Y-81840225D01*
X112826320Y-81840224D01*
X112624527Y-81811210D01*
X112543079Y-81799500D01*
X112256921Y-81799500D01*
X112216197Y-81805355D01*
X111973679Y-81840224D01*
X111973675Y-81840225D01*
X111699120Y-81920840D01*
X111438813Y-82039717D01*
X111438808Y-82039720D01*
X111198083Y-82194425D01*
X110981819Y-82381819D01*
X110794425Y-82598083D01*
X110639720Y-82838808D01*
X110639717Y-82838813D01*
X110520840Y-83099120D01*
X110440225Y-83373675D01*
X110440224Y-83373679D01*
X110399500Y-83656922D01*
X110399500Y-83943077D01*
X106393787Y-83943077D01*
X106405643Y-83800005D01*
X106405643Y-83799994D01*
X106385109Y-83552187D01*
X106385107Y-83552175D01*
X106324063Y-83311118D01*
X106224173Y-83083393D01*
X106088166Y-82875217D01*
X106043151Y-82826318D01*
X105919744Y-82692262D01*
X105723509Y-82539526D01*
X105723507Y-82539525D01*
X105723506Y-82539524D01*
X105504811Y-82421172D01*
X105504802Y-82421169D01*
X105269616Y-82340429D01*
X105024335Y-82299500D01*
X104775665Y-82299500D01*
X104530383Y-82340429D01*
X104295197Y-82421169D01*
X104295188Y-82421172D01*
X104076493Y-82539524D01*
X103880257Y-82692261D01*
X103711833Y-82875217D01*
X103575826Y-83083393D01*
X103475936Y-83311118D01*
X103414892Y-83552175D01*
X103414890Y-83552187D01*
X103394357Y-83799994D01*
X103394357Y-83800005D01*
X97502139Y-83800005D01*
X93054292Y-79352158D01*
X93024555Y-79304339D01*
X92954576Y-79098185D01*
X92822473Y-78830306D01*
X92656534Y-78581961D01*
X92613384Y-78532758D01*
X92459600Y-78357399D01*
X92235040Y-78160467D01*
X92140844Y-78097527D01*
X92112548Y-78078619D01*
X91986700Y-77994530D01*
X91986697Y-77994528D01*
X91986695Y-77994527D01*
X91927676Y-77965422D01*
X91718817Y-77862424D01*
X91718807Y-77862420D01*
X91435997Y-77766419D01*
X91435977Y-77766414D01*
X91143052Y-77708148D01*
X91143042Y-77708146D01*
X91143035Y-77708145D01*
X91143025Y-77708144D01*
X90845007Y-77688611D01*
X90844993Y-77688611D01*
X90546974Y-77708144D01*
X90546962Y-77708145D01*
X90546958Y-77708146D01*
X90546950Y-77708147D01*
X90546947Y-77708148D01*
X90254022Y-77766414D01*
X90254007Y-77766418D01*
X89971189Y-77862422D01*
X89971168Y-77862431D01*
X89703313Y-77994523D01*
X89703300Y-77994530D01*
X89454959Y-78160467D01*
X89230399Y-78357399D01*
X89033467Y-78581959D01*
X88867530Y-78830300D01*
X88867523Y-78830313D01*
X88735431Y-79098168D01*
X88735422Y-79098189D01*
X88639418Y-79381007D01*
X88639414Y-79381022D01*
X88581148Y-79673947D01*
X88581144Y-79673974D01*
X88561611Y-79971992D01*
X88561611Y-79972007D01*
X87300500Y-79972007D01*
X87300500Y-76871995D01*
X87320185Y-76804956D01*
X87336814Y-76784319D01*
X91464842Y-72656290D01*
X91512659Y-72626555D01*
X91699042Y-72563288D01*
X91717331Y-72557080D01*
X91757188Y-72550500D01*
X119025500Y-72550500D01*
X119092539Y-72570185D01*
X119138294Y-72622989D01*
X119149500Y-72674500D01*
X119149500Y-83871448D01*
X119164804Y-84085433D01*
X119225628Y-84365037D01*
X119225630Y-84365043D01*
X119225631Y-84365046D01*
X119325633Y-84633161D01*
X119325635Y-84633166D01*
X119462770Y-84884309D01*
X119462775Y-84884317D01*
X119634254Y-85113387D01*
X119634270Y-85113405D01*
X119836594Y-85315729D01*
X119836612Y-85315745D01*
X120065682Y-85487224D01*
X120065690Y-85487229D01*
X120316833Y-85624364D01*
X120316832Y-85624364D01*
X120316836Y-85624365D01*
X120316839Y-85624367D01*
X120584954Y-85724369D01*
X120584960Y-85724370D01*
X120584962Y-85724371D01*
X120864566Y-85785195D01*
X120864568Y-85785195D01*
X120864572Y-85785196D01*
X121118220Y-85803337D01*
X121149999Y-85805610D01*
X121150000Y-85805610D01*
X121150001Y-85805610D01*
X121178595Y-85803564D01*
X121435428Y-85785196D01*
X121715046Y-85724369D01*
X121983161Y-85624367D01*
X122234315Y-85487226D01*
X122463395Y-85315739D01*
X122665739Y-85113395D01*
X122837226Y-84884315D01*
X122974367Y-84633161D01*
X123074369Y-84365046D01*
X123104546Y-84226324D01*
X123135195Y-84085433D01*
X123135195Y-84085432D01*
X123135196Y-84085428D01*
X123150500Y-83871448D01*
X123150500Y-83800005D01*
X127144357Y-83800005D01*
X127164890Y-84047812D01*
X127164892Y-84047824D01*
X127225936Y-84288881D01*
X127325826Y-84516606D01*
X127461833Y-84724782D01*
X127461836Y-84724785D01*
X127630256Y-84907738D01*
X127826491Y-85060474D01*
X128045190Y-85178828D01*
X128280386Y-85259571D01*
X128525665Y-85300500D01*
X128774335Y-85300500D01*
X129019614Y-85259571D01*
X129254810Y-85178828D01*
X129473509Y-85060474D01*
X129669744Y-84907738D01*
X129838164Y-84724785D01*
X129974173Y-84516607D01*
X130074063Y-84288881D01*
X130135108Y-84047821D01*
X130143787Y-83943079D01*
X130155643Y-83800005D01*
X130155643Y-83799994D01*
X130135109Y-83552187D01*
X130135107Y-83552175D01*
X130074063Y-83311118D01*
X129974173Y-83083393D01*
X129838166Y-82875217D01*
X129793151Y-82826318D01*
X129669744Y-82692262D01*
X129473509Y-82539526D01*
X129473507Y-82539525D01*
X129473506Y-82539524D01*
X129254811Y-82421172D01*
X129254802Y-82421169D01*
X129019616Y-82340429D01*
X128774335Y-82299500D01*
X128525665Y-82299500D01*
X128280383Y-82340429D01*
X128045197Y-82421169D01*
X128045188Y-82421172D01*
X127826493Y-82539524D01*
X127630257Y-82692261D01*
X127461833Y-82875217D01*
X127325826Y-83083393D01*
X127225936Y-83311118D01*
X127164892Y-83552175D01*
X127164890Y-83552187D01*
X127144357Y-83799994D01*
X127144357Y-83800005D01*
X123150500Y-83800005D01*
X123150500Y-72674500D01*
X123170185Y-72607461D01*
X123222989Y-72561706D01*
X123274500Y-72550500D01*
X141776087Y-72550500D01*
X141830931Y-72563288D01*
X142026182Y-72659575D01*
X142026192Y-72659579D01*
X142309002Y-72755580D01*
X142309006Y-72755581D01*
X142309015Y-72755584D01*
X142601958Y-72813854D01*
X142630577Y-72815729D01*
X142899993Y-72833389D01*
X142900000Y-72833389D01*
X142900007Y-72833389D01*
X143138607Y-72817749D01*
X143198042Y-72813854D01*
X143490985Y-72755584D01*
X143490997Y-72755580D01*
X143773807Y-72659579D01*
X143773817Y-72659575D01*
X143840779Y-72626553D01*
X144041695Y-72527473D01*
X144290039Y-72361534D01*
X144514600Y-72164600D01*
X144711534Y-71940039D01*
X144877473Y-71691695D01*
X145009576Y-71423815D01*
X145105584Y-71140985D01*
X145163854Y-70848042D01*
X145183389Y-70550000D01*
X145183389Y-70549992D01*
X145163855Y-70251974D01*
X145163854Y-70251958D01*
X145105584Y-69959015D01*
X145009576Y-69676185D01*
X144877473Y-69408306D01*
X144711534Y-69159961D01*
X144621204Y-69056959D01*
X144514600Y-68935399D01*
X144290040Y-68738467D01*
X144041700Y-68572530D01*
X144041697Y-68572528D01*
X144041695Y-68572527D01*
X143995001Y-68549500D01*
X143773817Y-68440424D01*
X143773807Y-68440420D01*
X143490997Y-68344419D01*
X143490977Y-68344414D01*
X143198052Y-68286148D01*
X143198042Y-68286146D01*
X143198035Y-68286145D01*
X143198025Y-68286144D01*
X142900007Y-68266611D01*
X142899993Y-68266611D01*
X142601974Y-68286144D01*
X142601962Y-68286145D01*
X142601958Y-68286146D01*
X142601950Y-68286147D01*
X142601947Y-68286148D01*
X142309022Y-68344414D01*
X142309002Y-68344419D01*
X142026192Y-68440420D01*
X142026182Y-68440424D01*
X141830931Y-68536712D01*
X141776087Y-68549500D01*
X121223662Y-68549500D01*
X121219239Y-68549342D01*
X121187535Y-68547074D01*
X121150001Y-68544390D01*
X121149999Y-68544390D01*
X121112464Y-68547074D01*
X121080760Y-68549342D01*
X121076338Y-68549500D01*
X92143997Y-68549500D01*
X92076958Y-68529815D01*
X92075106Y-68528602D01*
X91986699Y-68469530D01*
X91986695Y-68469527D01*
X91927680Y-68440424D01*
X91718817Y-68337424D01*
X91718807Y-68337420D01*
X91435997Y-68241419D01*
X91435977Y-68241414D01*
X91143052Y-68183148D01*
X91143042Y-68183146D01*
X91143035Y-68183145D01*
X91143025Y-68183144D01*
X90845007Y-68163611D01*
X90844993Y-68163611D01*
X90546974Y-68183144D01*
X90546962Y-68183145D01*
X90546958Y-68183146D01*
X90546950Y-68183147D01*
X90546947Y-68183148D01*
X90254022Y-68241414D01*
X90254007Y-68241418D01*
X89971189Y-68337422D01*
X89971168Y-68337431D01*
X89703313Y-68469523D01*
X89703300Y-68469530D01*
X89454959Y-68635467D01*
X89230399Y-68832399D01*
X89033467Y-69056959D01*
X88867530Y-69305300D01*
X88867523Y-69305313D01*
X88735425Y-69573181D01*
X88665444Y-69779336D01*
X88635706Y-69827158D01*
X83950293Y-74512569D01*
X83950285Y-74512580D01*
X83784271Y-74678593D01*
X83784258Y-74678608D01*
X83742664Y-74734170D01*
X83739887Y-74737616D01*
X83694434Y-74790072D01*
X83694420Y-74790091D01*
X83656896Y-74848478D01*
X83654373Y-74852113D01*
X83612777Y-74907680D01*
X83579507Y-74968605D01*
X83577250Y-74972410D01*
X83539720Y-75030809D01*
X83510882Y-75093953D01*
X83508901Y-75097911D01*
X83475634Y-75158836D01*
X83475629Y-75158846D01*
X83451373Y-75223879D01*
X83449680Y-75227967D01*
X83420842Y-75291115D01*
X83420841Y-75291119D01*
X83401286Y-75357715D01*
X83399888Y-75361914D01*
X83375632Y-75426947D01*
X83375631Y-75426952D01*
X83360871Y-75494798D01*
X83359777Y-75499086D01*
X83340226Y-75565674D01*
X83340224Y-75565683D01*
X83330344Y-75634386D01*
X83329559Y-75638740D01*
X83314804Y-75706570D01*
X83314803Y-75706574D01*
X83309850Y-75775815D01*
X83309377Y-75780213D01*
X83299500Y-75848915D01*
X83299500Y-82543082D01*
X76700500Y-82543082D01*
X76700500Y-63874500D01*
X76720185Y-63807461D01*
X76772989Y-63761706D01*
X76824500Y-63750500D01*
X156775500Y-63750500D01*
X156842539Y-63770185D01*
G37*
%TD.AperFunction*%
%TD*%
M02*
