%TF.GenerationSoftware,KiCad,Pcbnew,7.0.7+dfsg-1*%
%TF.CreationDate,2023-09-26T20:47:21-04:00*%
%TF.ProjectId,Relaybox,52656c61-7962-46f7-982e-6b696361645f,v1*%
%TF.SameCoordinates,Original*%
%TF.FileFunction,Other,User*%
%FSLAX46Y46*%
G04 Gerber Fmt 4.6, Leading zero omitted, Abs format (unit mm)*
G04 Created by KiCad (PCBNEW 7.0.7+dfsg-1) date 2023-09-26 20:47:21*
%MOMM*%
%LPD*%
G01*
G04 APERTURE LIST*
%ADD10C,0.050000*%
%ADD11C,0.100000*%
G04 APERTURE END LIST*
D10*
%TO.C,C2*%
X122400000Y-119300000D02*
X122400000Y-122800000D01*
X122400000Y-122800000D02*
X127500000Y-122800000D01*
X127500000Y-119300000D02*
X122400000Y-119300000D01*
X127500000Y-122800000D02*
X127500000Y-119300000D01*
D11*
%TO.C,J3*%
X156552500Y-64200000D02*
X138137500Y-64200000D01*
X138137500Y-64200000D02*
X138137500Y-95315000D01*
X138137500Y-95315000D02*
X156552500Y-95315000D01*
X156552500Y-95315000D02*
X156552500Y-64200000D01*
%TO.C,J2*%
X77192500Y-86068000D02*
X95607500Y-86068000D01*
X95607500Y-86068000D02*
X95607500Y-64732000D01*
X95607500Y-64732000D02*
X77192500Y-64732000D01*
X77192500Y-64732000D02*
X77192500Y-86068000D01*
D10*
%TO.C,K2*%
X131400000Y-111350000D02*
X131400000Y-82050000D01*
X131400000Y-82050000D02*
X118400000Y-82050000D01*
X118400000Y-111350000D02*
X131400000Y-111350000D01*
X118400000Y-82050000D02*
X118400000Y-111350000D01*
D11*
%TO.C,J1*%
X132600000Y-143602500D02*
X101485000Y-143602500D01*
X101485000Y-143602500D02*
X101485000Y-125187500D01*
X101485000Y-125187500D02*
X132600000Y-125187500D01*
X132600000Y-125187500D02*
X132600000Y-143602500D01*
D10*
%TO.C,D1*%
X105910000Y-114550000D02*
X105910000Y-117650000D01*
X105910000Y-117650000D02*
X113490000Y-117650000D01*
X113490000Y-114550000D02*
X105910000Y-114550000D01*
X113490000Y-117650000D02*
X113490000Y-114550000D01*
%TO.C,C1*%
X110950000Y-122850000D02*
X110950000Y-119350000D01*
X110950000Y-119350000D02*
X105850000Y-119350000D01*
X105850000Y-122850000D02*
X110950000Y-122850000D01*
X105850000Y-119350000D02*
X105850000Y-122850000D01*
%TO.C,D2*%
X127490000Y-117750000D02*
X127490000Y-114650000D01*
X127490000Y-114650000D02*
X119910000Y-114650000D01*
X119910000Y-117750000D02*
X127490000Y-117750000D01*
X119910000Y-114650000D02*
X119910000Y-117750000D01*
%TO.C,K1*%
X115150000Y-111350000D02*
X115150000Y-82050000D01*
X115150000Y-82050000D02*
X102150000Y-82050000D01*
X102150000Y-111350000D02*
X115150000Y-111350000D01*
X102150000Y-82050000D02*
X102150000Y-111350000D01*
%TD*%
M02*
