M48
; DRILL file {KiCad 7.0.7+dfsg-1} date Tue 26 Sep 2023 08:47:05 PM EDT
; FORMAT={-:-/ absolute / inch / decimal}
; #@! TF.CreationDate,2023-09-26T20:47:05-04:00
; #@! TF.GenerationSoftware,Kicad,Pcbnew,7.0.7+dfsg-1
; #@! TF.FileFunction,Plated,1,2,PTH
FMAT,2
INCH
; #@! TA.AperFunction,Plated,PTH,ComponentDrill
T1C0.0276
; #@! TA.AperFunction,Plated,PTH,ComponentDrill
T2C0.0394
; #@! TA.AperFunction,Plated,PTH,ComponentDrill
T3C0.0512
; #@! TA.AperFunction,Plated,PTH,ComponentDrill
T4C0.0800
%
G90
G05
T1
X4.2185Y-4.7677
X4.3169Y-4.7677
X4.8701Y-4.7657
X4.9685Y-4.7657
T2
X4.2189Y-4.5709
X4.4189Y-4.5709
X4.7701Y-4.5748
X4.9701Y-4.5748
T3
X4.1299Y-3.2992
X4.1299Y-3.4961
X4.1299Y-3.6929
X4.1299Y-4.2835
X4.4252Y-3.2992
X4.4252Y-3.4961
X4.4252Y-3.6929
X4.4252Y-4.2835
X4.7697Y-3.2992
X4.7697Y-3.4961
X4.7697Y-3.6929
X4.7697Y-4.2835
X5.065Y-3.2992
X5.065Y-3.4961
X5.065Y-3.6929
X5.065Y-4.2835
T4
X3.5766Y-2.7735
X3.5766Y-3.1485
X4.2205Y-5.1161
X4.5955Y-5.1161
X4.9705Y-5.1161
X5.626Y-2.7776
X5.626Y-3.1526
X5.626Y-3.5276
T0
M30
